<mxfile host="app.diagrams.net" modified="2023-10-22T13:41:00.791Z" agent="Mozilla/5.0 (Windows NT 10.0; Win64; x64; rv:109.0) Gecko/20100101 Firefox/118.0" etag="KeQ2nNkgF98j-s1M0Iun" version="22.0.6" type="device" pages="3">
  <diagram name="Ãœbungsaufgaben" id="8kgF85UFcTTqEHGNCaWI">
    <mxGraphModel dx="2261" dy="746" grid="1" gridSize="10" guides="1" tooltips="1" connect="1" arrows="1" fold="1" page="1" pageScale="1" pageWidth="827" pageHeight="1169" math="0" shadow="0">
      <root>
        <mxCell id="0" />
        <mxCell id="1" parent="0" />
        <mxCell id="PgDC-HXr47HgIIDUL0MW-1" value="" style="rounded=0;whiteSpace=wrap;html=1;" parent="1" vertex="1">
          <mxGeometry x="40" y="240" width="140" height="40" as="geometry" />
        </mxCell>
        <mxCell id="PgDC-HXr47HgIIDUL0MW-2" value="" style="rounded=0;whiteSpace=wrap;html=1;" parent="1" vertex="1">
          <mxGeometry x="180" y="240" width="130" height="40" as="geometry" />
        </mxCell>
        <mxCell id="PgDC-HXr47HgIIDUL0MW-3" value="" style="rounded=0;whiteSpace=wrap;html=1;" parent="1" vertex="1">
          <mxGeometry x="40" y="280" width="90" height="40" as="geometry" />
        </mxCell>
        <mxCell id="PgDC-HXr47HgIIDUL0MW-4" value="" style="rounded=0;whiteSpace=wrap;html=1;" parent="1" vertex="1">
          <mxGeometry x="130" y="280" width="90" height="40" as="geometry" />
        </mxCell>
        <mxCell id="PgDC-HXr47HgIIDUL0MW-5" value="" style="rounded=0;whiteSpace=wrap;html=1;" parent="1" vertex="1">
          <mxGeometry x="220" y="280" width="90" height="40" as="geometry" />
        </mxCell>
        <mxCell id="PgDC-HXr47HgIIDUL0MW-7" value="FAZ" style="text;html=1;strokeColor=none;fillColor=none;align=center;verticalAlign=middle;whiteSpace=wrap;rounded=0;" parent="1" vertex="1">
          <mxGeometry x="-20" y="210" width="60" height="30" as="geometry" />
        </mxCell>
        <mxCell id="PgDC-HXr47HgIIDUL0MW-8" value="FEZ" style="text;html=1;strokeColor=none;fillColor=none;align=center;verticalAlign=middle;whiteSpace=wrap;rounded=0;" parent="1" vertex="1">
          <mxGeometry x="310" y="210" width="60" height="30" as="geometry" />
        </mxCell>
        <mxCell id="PgDC-HXr47HgIIDUL0MW-9" value="SEZ" style="text;html=1;strokeColor=none;fillColor=none;align=center;verticalAlign=middle;whiteSpace=wrap;rounded=0;" parent="1" vertex="1">
          <mxGeometry x="310" y="320" width="60" height="30" as="geometry" />
        </mxCell>
        <mxCell id="PgDC-HXr47HgIIDUL0MW-11" value="SAZ" style="text;html=1;strokeColor=none;fillColor=none;align=center;verticalAlign=middle;whiteSpace=wrap;rounded=0;" parent="1" vertex="1">
          <mxGeometry x="-20" y="320" width="60" height="30" as="geometry" />
        </mxCell>
        <mxCell id="PgDC-HXr47HgIIDUL0MW-12" value="Vorgang" style="text;html=1;strokeColor=none;fillColor=none;align=center;verticalAlign=middle;whiteSpace=wrap;rounded=0;" parent="1" vertex="1">
          <mxGeometry x="80" y="245" width="60" height="30" as="geometry" />
        </mxCell>
        <mxCell id="PgDC-HXr47HgIIDUL0MW-13" value="Beschreibung" style="text;html=1;strokeColor=none;fillColor=none;align=center;verticalAlign=middle;whiteSpace=wrap;rounded=0;" parent="1" vertex="1">
          <mxGeometry x="215" y="245" width="60" height="30" as="geometry" />
        </mxCell>
        <mxCell id="PgDC-HXr47HgIIDUL0MW-14" value="Dauer" style="text;html=1;strokeColor=none;fillColor=none;align=center;verticalAlign=middle;whiteSpace=wrap;rounded=0;" parent="1" vertex="1">
          <mxGeometry x="55" y="285" width="60" height="30" as="geometry" />
        </mxCell>
        <mxCell id="PgDC-HXr47HgIIDUL0MW-15" value="GP" style="text;html=1;strokeColor=none;fillColor=none;align=center;verticalAlign=middle;whiteSpace=wrap;rounded=0;" parent="1" vertex="1">
          <mxGeometry x="145" y="285" width="60" height="30" as="geometry" />
        </mxCell>
        <mxCell id="PgDC-HXr47HgIIDUL0MW-16" value="FP" style="text;html=1;strokeColor=none;fillColor=none;align=center;verticalAlign=middle;whiteSpace=wrap;rounded=0;" parent="1" vertex="1">
          <mxGeometry x="235" y="285" width="60" height="30" as="geometry" />
        </mxCell>
        <mxCell id="PgDC-HXr47HgIIDUL0MW-17" value="" style="rounded=0;whiteSpace=wrap;html=1;" parent="1" vertex="1">
          <mxGeometry x="-180" y="545" width="140" height="40" as="geometry" />
        </mxCell>
        <mxCell id="PgDC-HXr47HgIIDUL0MW-18" value="" style="rounded=0;whiteSpace=wrap;html=1;" parent="1" vertex="1">
          <mxGeometry x="-40" y="545" width="130" height="40" as="geometry" />
        </mxCell>
        <mxCell id="PgDC-HXr47HgIIDUL0MW-19" value="" style="rounded=0;whiteSpace=wrap;html=1;" parent="1" vertex="1">
          <mxGeometry x="-180" y="585" width="90" height="40" as="geometry" />
        </mxCell>
        <mxCell id="PgDC-HXr47HgIIDUL0MW-20" value="" style="rounded=0;whiteSpace=wrap;html=1;" parent="1" vertex="1">
          <mxGeometry x="-90" y="585" width="90" height="40" as="geometry" />
        </mxCell>
        <mxCell id="PgDC-HXr47HgIIDUL0MW-21" value="" style="rounded=0;whiteSpace=wrap;html=1;" parent="1" vertex="1">
          <mxGeometry y="585" width="90" height="40" as="geometry" />
        </mxCell>
        <mxCell id="PgDC-HXr47HgIIDUL0MW-22" value="0" style="text;html=1;strokeColor=none;fillColor=none;align=center;verticalAlign=middle;whiteSpace=wrap;rounded=0;" parent="1" vertex="1">
          <mxGeometry x="-240" y="515" width="60" height="30" as="geometry" />
        </mxCell>
        <mxCell id="PgDC-HXr47HgIIDUL0MW-23" value="1" style="text;html=1;strokeColor=none;fillColor=none;align=center;verticalAlign=middle;whiteSpace=wrap;rounded=0;" parent="1" vertex="1">
          <mxGeometry x="90" y="515" width="60" height="30" as="geometry" />
        </mxCell>
        <mxCell id="PgDC-HXr47HgIIDUL0MW-24" value="1" style="text;html=1;strokeColor=none;fillColor=none;align=center;verticalAlign=middle;whiteSpace=wrap;rounded=0;" parent="1" vertex="1">
          <mxGeometry x="90" y="625" width="60" height="30" as="geometry" />
        </mxCell>
        <mxCell id="PgDC-HXr47HgIIDUL0MW-25" value="0" style="text;html=1;strokeColor=none;fillColor=none;align=center;verticalAlign=middle;whiteSpace=wrap;rounded=0;" parent="1" vertex="1">
          <mxGeometry x="-240" y="625" width="60" height="30" as="geometry" />
        </mxCell>
        <mxCell id="PgDC-HXr47HgIIDUL0MW-26" value="1" style="text;html=1;strokeColor=none;fillColor=none;align=center;verticalAlign=middle;whiteSpace=wrap;rounded=0;" parent="1" vertex="1">
          <mxGeometry x="-140" y="550" width="60" height="30" as="geometry" />
        </mxCell>
        <mxCell id="PgDC-HXr47HgIIDUL0MW-27" value="Analyse und Einarbeitung" style="text;html=1;strokeColor=none;fillColor=none;align=center;verticalAlign=middle;whiteSpace=wrap;rounded=0;" parent="1" vertex="1">
          <mxGeometry x="-5" y="550" width="60" height="30" as="geometry" />
        </mxCell>
        <mxCell id="PgDC-HXr47HgIIDUL0MW-28" value="1" style="text;html=1;strokeColor=none;fillColor=none;align=center;verticalAlign=middle;whiteSpace=wrap;rounded=0;" parent="1" vertex="1">
          <mxGeometry x="-165" y="590" width="60" height="30" as="geometry" />
        </mxCell>
        <mxCell id="PgDC-HXr47HgIIDUL0MW-29" value="0" style="text;html=1;strokeColor=none;fillColor=none;align=center;verticalAlign=middle;whiteSpace=wrap;rounded=0;" parent="1" vertex="1">
          <mxGeometry x="-75" y="590" width="60" height="30" as="geometry" />
        </mxCell>
        <mxCell id="PgDC-HXr47HgIIDUL0MW-30" value="0" style="text;html=1;strokeColor=none;fillColor=none;align=center;verticalAlign=middle;whiteSpace=wrap;rounded=0;" parent="1" vertex="1">
          <mxGeometry x="15" y="590" width="60" height="30" as="geometry" />
        </mxCell>
        <mxCell id="PgDC-HXr47HgIIDUL0MW-31" value="" style="rounded=0;whiteSpace=wrap;html=1;" parent="1" vertex="1">
          <mxGeometry x="220" y="545" width="140" height="40" as="geometry" />
        </mxCell>
        <mxCell id="PgDC-HXr47HgIIDUL0MW-32" value="" style="rounded=0;whiteSpace=wrap;html=1;" parent="1" vertex="1">
          <mxGeometry x="360" y="545" width="130" height="40" as="geometry" />
        </mxCell>
        <mxCell id="PgDC-HXr47HgIIDUL0MW-33" value="" style="rounded=0;whiteSpace=wrap;html=1;" parent="1" vertex="1">
          <mxGeometry x="220" y="585" width="90" height="40" as="geometry" />
        </mxCell>
        <mxCell id="PgDC-HXr47HgIIDUL0MW-34" value="" style="rounded=0;whiteSpace=wrap;html=1;" parent="1" vertex="1">
          <mxGeometry x="310" y="585" width="90" height="40" as="geometry" />
        </mxCell>
        <mxCell id="PgDC-HXr47HgIIDUL0MW-35" value="" style="rounded=0;whiteSpace=wrap;html=1;" parent="1" vertex="1">
          <mxGeometry x="400" y="585" width="90" height="40" as="geometry" />
        </mxCell>
        <mxCell id="PgDC-HXr47HgIIDUL0MW-36" value="1" style="text;html=1;strokeColor=none;fillColor=none;align=center;verticalAlign=middle;whiteSpace=wrap;rounded=0;" parent="1" vertex="1">
          <mxGeometry x="160" y="515" width="60" height="30" as="geometry" />
        </mxCell>
        <mxCell id="PgDC-HXr47HgIIDUL0MW-37" value="2" style="text;html=1;strokeColor=none;fillColor=none;align=center;verticalAlign=middle;whiteSpace=wrap;rounded=0;" parent="1" vertex="1">
          <mxGeometry x="490" y="515" width="60" height="30" as="geometry" />
        </mxCell>
        <mxCell id="PgDC-HXr47HgIIDUL0MW-38" value="2" style="text;html=1;strokeColor=none;fillColor=none;align=center;verticalAlign=middle;whiteSpace=wrap;rounded=0;" parent="1" vertex="1">
          <mxGeometry x="490" y="625" width="60" height="30" as="geometry" />
        </mxCell>
        <mxCell id="PgDC-HXr47HgIIDUL0MW-39" value="1" style="text;html=1;strokeColor=none;fillColor=none;align=center;verticalAlign=middle;whiteSpace=wrap;rounded=0;" parent="1" vertex="1">
          <mxGeometry x="160" y="625" width="60" height="30" as="geometry" />
        </mxCell>
        <mxCell id="PgDC-HXr47HgIIDUL0MW-40" value="2" style="text;html=1;strokeColor=none;fillColor=none;align=center;verticalAlign=middle;whiteSpace=wrap;rounded=0;" parent="1" vertex="1">
          <mxGeometry x="260" y="550" width="60" height="30" as="geometry" />
        </mxCell>
        <mxCell id="PgDC-HXr47HgIIDUL0MW-41" value="Sollkonzept entwerfen" style="text;html=1;strokeColor=none;fillColor=none;align=center;verticalAlign=middle;whiteSpace=wrap;rounded=0;" parent="1" vertex="1">
          <mxGeometry x="395" y="550" width="60" height="30" as="geometry" />
        </mxCell>
        <mxCell id="PgDC-HXr47HgIIDUL0MW-42" value="1" style="text;html=1;strokeColor=none;fillColor=none;align=center;verticalAlign=middle;whiteSpace=wrap;rounded=0;" parent="1" vertex="1">
          <mxGeometry x="235" y="590" width="60" height="30" as="geometry" />
        </mxCell>
        <mxCell id="PgDC-HXr47HgIIDUL0MW-43" value="0" style="text;html=1;strokeColor=none;fillColor=none;align=center;verticalAlign=middle;whiteSpace=wrap;rounded=0;" parent="1" vertex="1">
          <mxGeometry x="325" y="590" width="60" height="30" as="geometry" />
        </mxCell>
        <mxCell id="PgDC-HXr47HgIIDUL0MW-44" value="0" style="text;html=1;strokeColor=none;fillColor=none;align=center;verticalAlign=middle;whiteSpace=wrap;rounded=0;" parent="1" vertex="1">
          <mxGeometry x="415" y="590" width="60" height="30" as="geometry" />
        </mxCell>
        <mxCell id="PgDC-HXr47HgIIDUL0MW-59" value="" style="rounded=0;whiteSpace=wrap;html=1;" parent="1" vertex="1">
          <mxGeometry x="700" y="405" width="140" height="40" as="geometry" />
        </mxCell>
        <mxCell id="PgDC-HXr47HgIIDUL0MW-60" value="" style="rounded=0;whiteSpace=wrap;html=1;" parent="1" vertex="1">
          <mxGeometry x="840" y="405" width="130" height="40" as="geometry" />
        </mxCell>
        <mxCell id="PgDC-HXr47HgIIDUL0MW-61" value="" style="rounded=0;whiteSpace=wrap;html=1;" parent="1" vertex="1">
          <mxGeometry x="700" y="445" width="90" height="40" as="geometry" />
        </mxCell>
        <mxCell id="PgDC-HXr47HgIIDUL0MW-62" value="" style="rounded=0;whiteSpace=wrap;html=1;" parent="1" vertex="1">
          <mxGeometry x="790" y="445" width="90" height="40" as="geometry" />
        </mxCell>
        <mxCell id="PgDC-HXr47HgIIDUL0MW-63" value="" style="rounded=0;whiteSpace=wrap;html=1;" parent="1" vertex="1">
          <mxGeometry x="880" y="445" width="90" height="40" as="geometry" />
        </mxCell>
        <mxCell id="PgDC-HXr47HgIIDUL0MW-64" value="2" style="text;html=1;strokeColor=none;fillColor=none;align=center;verticalAlign=middle;whiteSpace=wrap;rounded=0;" parent="1" vertex="1">
          <mxGeometry x="640" y="375" width="60" height="30" as="geometry" />
        </mxCell>
        <mxCell id="PgDC-HXr47HgIIDUL0MW-65" value="5" style="text;html=1;strokeColor=none;fillColor=none;align=center;verticalAlign=middle;whiteSpace=wrap;rounded=0;" parent="1" vertex="1">
          <mxGeometry x="970" y="375" width="60" height="30" as="geometry" />
        </mxCell>
        <mxCell id="PgDC-HXr47HgIIDUL0MW-66" value="5" style="text;html=1;strokeColor=none;fillColor=none;align=center;verticalAlign=middle;whiteSpace=wrap;rounded=0;" parent="1" vertex="1">
          <mxGeometry x="970" y="485" width="60" height="30" as="geometry" />
        </mxCell>
        <mxCell id="PgDC-HXr47HgIIDUL0MW-67" value="2" style="text;html=1;strokeColor=none;fillColor=none;align=center;verticalAlign=middle;whiteSpace=wrap;rounded=0;" parent="1" vertex="1">
          <mxGeometry x="640" y="485" width="60" height="30" as="geometry" />
        </mxCell>
        <mxCell id="PgDC-HXr47HgIIDUL0MW-68" value="3" style="text;html=1;strokeColor=none;fillColor=none;align=center;verticalAlign=middle;whiteSpace=wrap;rounded=0;" parent="1" vertex="1">
          <mxGeometry x="740" y="410" width="60" height="30" as="geometry" />
        </mxCell>
        <mxCell id="PgDC-HXr47HgIIDUL0MW-69" value="Tabellen und Abfragen erstellen" style="text;html=1;strokeColor=none;fillColor=none;align=center;verticalAlign=middle;whiteSpace=wrap;rounded=0;" parent="1" vertex="1">
          <mxGeometry x="840" y="410" width="120" height="30" as="geometry" />
        </mxCell>
        <mxCell id="PgDC-HXr47HgIIDUL0MW-70" value="3" style="text;html=1;strokeColor=none;fillColor=none;align=center;verticalAlign=middle;whiteSpace=wrap;rounded=0;" parent="1" vertex="1">
          <mxGeometry x="715" y="450" width="60" height="30" as="geometry" />
        </mxCell>
        <mxCell id="PgDC-HXr47HgIIDUL0MW-71" value="0" style="text;html=1;strokeColor=none;fillColor=none;align=center;verticalAlign=middle;whiteSpace=wrap;rounded=0;" parent="1" vertex="1">
          <mxGeometry x="805" y="450" width="60" height="30" as="geometry" />
        </mxCell>
        <mxCell id="PgDC-HXr47HgIIDUL0MW-72" value="0" style="text;html=1;strokeColor=none;fillColor=none;align=center;verticalAlign=middle;whiteSpace=wrap;rounded=0;" parent="1" vertex="1">
          <mxGeometry x="895" y="450" width="60" height="30" as="geometry" />
        </mxCell>
        <mxCell id="PgDC-HXr47HgIIDUL0MW-73" value="" style="rounded=0;whiteSpace=wrap;html=1;" parent="1" vertex="1">
          <mxGeometry x="1160" y="290" width="140" height="40" as="geometry" />
        </mxCell>
        <mxCell id="PgDC-HXr47HgIIDUL0MW-74" value="" style="rounded=0;whiteSpace=wrap;html=1;" parent="1" vertex="1">
          <mxGeometry x="1300" y="290" width="130" height="40" as="geometry" />
        </mxCell>
        <mxCell id="PgDC-HXr47HgIIDUL0MW-75" value="" style="rounded=0;whiteSpace=wrap;html=1;" parent="1" vertex="1">
          <mxGeometry x="1160" y="330" width="90" height="40" as="geometry" />
        </mxCell>
        <mxCell id="PgDC-HXr47HgIIDUL0MW-76" value="" style="rounded=0;whiteSpace=wrap;html=1;" parent="1" vertex="1">
          <mxGeometry x="1250" y="330" width="90" height="40" as="geometry" />
        </mxCell>
        <mxCell id="PgDC-HXr47HgIIDUL0MW-77" value="" style="rounded=0;whiteSpace=wrap;html=1;" parent="1" vertex="1">
          <mxGeometry x="1340" y="330" width="90" height="40" as="geometry" />
        </mxCell>
        <mxCell id="PgDC-HXr47HgIIDUL0MW-78" value="5" style="text;html=1;strokeColor=none;fillColor=none;align=center;verticalAlign=middle;whiteSpace=wrap;rounded=0;" parent="1" vertex="1">
          <mxGeometry x="1100" y="260" width="60" height="30" as="geometry" />
        </mxCell>
        <mxCell id="PgDC-HXr47HgIIDUL0MW-79" value="7" style="text;html=1;strokeColor=none;fillColor=none;align=center;verticalAlign=middle;whiteSpace=wrap;rounded=0;" parent="1" vertex="1">
          <mxGeometry x="1430" y="260" width="60" height="30" as="geometry" />
        </mxCell>
        <mxCell id="PgDC-HXr47HgIIDUL0MW-80" value="7" style="text;html=1;strokeColor=none;fillColor=none;align=center;verticalAlign=middle;whiteSpace=wrap;rounded=0;" parent="1" vertex="1">
          <mxGeometry x="1430" y="370" width="60" height="30" as="geometry" />
        </mxCell>
        <mxCell id="PgDC-HXr47HgIIDUL0MW-81" value="5" style="text;html=1;strokeColor=none;fillColor=none;align=center;verticalAlign=middle;whiteSpace=wrap;rounded=0;" parent="1" vertex="1">
          <mxGeometry x="1100" y="370" width="60" height="30" as="geometry" />
        </mxCell>
        <mxCell id="PgDC-HXr47HgIIDUL0MW-82" value="4" style="text;html=1;strokeColor=none;fillColor=none;align=center;verticalAlign=middle;whiteSpace=wrap;rounded=0;" parent="1" vertex="1">
          <mxGeometry x="1200" y="295" width="60" height="30" as="geometry" />
        </mxCell>
        <mxCell id="PgDC-HXr47HgIIDUL0MW-83" value="Berichte und Formulare ersttellen" style="text;html=1;strokeColor=none;fillColor=none;align=center;verticalAlign=middle;whiteSpace=wrap;rounded=0;" parent="1" vertex="1">
          <mxGeometry x="1300" y="295" width="120" height="30" as="geometry" />
        </mxCell>
        <mxCell id="PgDC-HXr47HgIIDUL0MW-84" value="2" style="text;html=1;strokeColor=none;fillColor=none;align=center;verticalAlign=middle;whiteSpace=wrap;rounded=0;" parent="1" vertex="1">
          <mxGeometry x="1175" y="335" width="60" height="30" as="geometry" />
        </mxCell>
        <mxCell id="PgDC-HXr47HgIIDUL0MW-85" value="0" style="text;html=1;strokeColor=none;fillColor=none;align=center;verticalAlign=middle;whiteSpace=wrap;rounded=0;" parent="1" vertex="1">
          <mxGeometry x="1265" y="335" width="60" height="30" as="geometry" />
        </mxCell>
        <mxCell id="PgDC-HXr47HgIIDUL0MW-86" value="0" style="text;html=1;strokeColor=none;fillColor=none;align=center;verticalAlign=middle;whiteSpace=wrap;rounded=0;" parent="1" vertex="1">
          <mxGeometry x="1355" y="335" width="60" height="30" as="geometry" />
        </mxCell>
        <mxCell id="PgDC-HXr47HgIIDUL0MW-87" value="" style="rounded=0;whiteSpace=wrap;html=1;" parent="1" vertex="1">
          <mxGeometry x="1180" y="710" width="140" height="40" as="geometry" />
        </mxCell>
        <mxCell id="PgDC-HXr47HgIIDUL0MW-88" value="" style="rounded=0;whiteSpace=wrap;html=1;" parent="1" vertex="1">
          <mxGeometry x="1320" y="710" width="130" height="40" as="geometry" />
        </mxCell>
        <mxCell id="PgDC-HXr47HgIIDUL0MW-89" value="" style="rounded=0;whiteSpace=wrap;html=1;" parent="1" vertex="1">
          <mxGeometry x="1180" y="750" width="90" height="40" as="geometry" />
        </mxCell>
        <mxCell id="PgDC-HXr47HgIIDUL0MW-90" value="" style="rounded=0;whiteSpace=wrap;html=1;" parent="1" vertex="1">
          <mxGeometry x="1270" y="750" width="90" height="40" as="geometry" />
        </mxCell>
        <mxCell id="PgDC-HXr47HgIIDUL0MW-91" value="" style="rounded=0;whiteSpace=wrap;html=1;" parent="1" vertex="1">
          <mxGeometry x="1360" y="750" width="90" height="40" as="geometry" />
        </mxCell>
        <mxCell id="PgDC-HXr47HgIIDUL0MW-92" value="2" style="text;html=1;strokeColor=none;fillColor=none;align=center;verticalAlign=middle;whiteSpace=wrap;rounded=0;" parent="1" vertex="1">
          <mxGeometry x="1120" y="680" width="60" height="30" as="geometry" />
        </mxCell>
        <mxCell id="PgDC-HXr47HgIIDUL0MW-93" value="6" style="text;html=1;strokeColor=none;fillColor=none;align=center;verticalAlign=middle;whiteSpace=wrap;rounded=0;" parent="1" vertex="1">
          <mxGeometry x="1450" y="680" width="60" height="30" as="geometry" />
        </mxCell>
        <mxCell id="PgDC-HXr47HgIIDUL0MW-94" value="7" style="text;html=1;strokeColor=none;fillColor=none;align=center;verticalAlign=middle;whiteSpace=wrap;rounded=0;" parent="1" vertex="1">
          <mxGeometry x="1450" y="790" width="60" height="30" as="geometry" />
        </mxCell>
        <mxCell id="PgDC-HXr47HgIIDUL0MW-95" value="3" style="text;html=1;strokeColor=none;fillColor=none;align=center;verticalAlign=middle;whiteSpace=wrap;rounded=0;" parent="1" vertex="1">
          <mxGeometry x="1120" y="790" width="60" height="30" as="geometry" />
        </mxCell>
        <mxCell id="PgDC-HXr47HgIIDUL0MW-96" value="6" style="text;html=1;strokeColor=none;fillColor=none;align=center;verticalAlign=middle;whiteSpace=wrap;rounded=0;" parent="1" vertex="1">
          <mxGeometry x="1220" y="715" width="60" height="30" as="geometry" />
        </mxCell>
        <mxCell id="PgDC-HXr47HgIIDUL0MW-97" value="Dokumentation und Benuzterhandbuch" style="text;html=1;strokeColor=none;fillColor=none;align=center;verticalAlign=middle;whiteSpace=wrap;rounded=0;" parent="1" vertex="1">
          <mxGeometry x="1340" y="715" width="75" height="30" as="geometry" />
        </mxCell>
        <mxCell id="PgDC-HXr47HgIIDUL0MW-98" value="4" style="text;html=1;strokeColor=none;fillColor=none;align=center;verticalAlign=middle;whiteSpace=wrap;rounded=0;" parent="1" vertex="1">
          <mxGeometry x="1195" y="755" width="60" height="30" as="geometry" />
        </mxCell>
        <mxCell id="PgDC-HXr47HgIIDUL0MW-99" value="1" style="text;html=1;strokeColor=none;fillColor=none;align=center;verticalAlign=middle;whiteSpace=wrap;rounded=0;" parent="1" vertex="1">
          <mxGeometry x="1285" y="755" width="60" height="30" as="geometry" />
        </mxCell>
        <mxCell id="PgDC-HXr47HgIIDUL0MW-100" value="1" style="text;html=1;strokeColor=none;fillColor=none;align=center;verticalAlign=middle;whiteSpace=wrap;rounded=0;" parent="1" vertex="1">
          <mxGeometry x="1375" y="755" width="60" height="30" as="geometry" />
        </mxCell>
        <mxCell id="PgDC-HXr47HgIIDUL0MW-101" value="" style="rounded=0;whiteSpace=wrap;html=1;" parent="1" vertex="1">
          <mxGeometry x="1170" y="490" width="140" height="40" as="geometry" />
        </mxCell>
        <mxCell id="PgDC-HXr47HgIIDUL0MW-102" value="" style="rounded=0;whiteSpace=wrap;html=1;" parent="1" vertex="1">
          <mxGeometry x="1310" y="490" width="130" height="40" as="geometry" />
        </mxCell>
        <mxCell id="PgDC-HXr47HgIIDUL0MW-103" value="" style="rounded=0;whiteSpace=wrap;html=1;" parent="1" vertex="1">
          <mxGeometry x="1170" y="530" width="90" height="40" as="geometry" />
        </mxCell>
        <mxCell id="PgDC-HXr47HgIIDUL0MW-104" value="" style="rounded=0;whiteSpace=wrap;html=1;" parent="1" vertex="1">
          <mxGeometry x="1260" y="530" width="90" height="40" as="geometry" />
        </mxCell>
        <mxCell id="PgDC-HXr47HgIIDUL0MW-105" value="" style="rounded=0;whiteSpace=wrap;html=1;" parent="1" vertex="1">
          <mxGeometry x="1350" y="530" width="90" height="40" as="geometry" />
        </mxCell>
        <mxCell id="PgDC-HXr47HgIIDUL0MW-106" value="5" style="text;html=1;strokeColor=none;fillColor=none;align=center;verticalAlign=middle;whiteSpace=wrap;rounded=0;" parent="1" vertex="1">
          <mxGeometry x="1110" y="460" width="60" height="30" as="geometry" />
        </mxCell>
        <mxCell id="PgDC-HXr47HgIIDUL0MW-107" value="6" style="text;html=1;strokeColor=none;fillColor=none;align=center;verticalAlign=middle;whiteSpace=wrap;rounded=0;" parent="1" vertex="1">
          <mxGeometry x="1440" y="460" width="60" height="30" as="geometry" />
        </mxCell>
        <mxCell id="PgDC-HXr47HgIIDUL0MW-108" value="7" style="text;html=1;strokeColor=none;fillColor=none;align=center;verticalAlign=middle;whiteSpace=wrap;rounded=0;" parent="1" vertex="1">
          <mxGeometry x="1440" y="570" width="60" height="30" as="geometry" />
        </mxCell>
        <mxCell id="PgDC-HXr47HgIIDUL0MW-109" value="6" style="text;html=1;strokeColor=none;fillColor=none;align=center;verticalAlign=middle;whiteSpace=wrap;rounded=0;" parent="1" vertex="1">
          <mxGeometry x="1110" y="570" width="60" height="30" as="geometry" />
        </mxCell>
        <mxCell id="PgDC-HXr47HgIIDUL0MW-110" value="5" style="text;html=1;strokeColor=none;fillColor=none;align=center;verticalAlign=middle;whiteSpace=wrap;rounded=0;" parent="1" vertex="1">
          <mxGeometry x="1210" y="495" width="60" height="30" as="geometry" />
        </mxCell>
        <mxCell id="PgDC-HXr47HgIIDUL0MW-111" value="QualitÃ¤tssicherung" style="text;html=1;strokeColor=none;fillColor=none;align=center;verticalAlign=middle;whiteSpace=wrap;rounded=0;" parent="1" vertex="1">
          <mxGeometry x="1330" y="495" width="75" height="30" as="geometry" />
        </mxCell>
        <mxCell id="PgDC-HXr47HgIIDUL0MW-112" value="1" style="text;html=1;strokeColor=none;fillColor=none;align=center;verticalAlign=middle;whiteSpace=wrap;rounded=0;" parent="1" vertex="1">
          <mxGeometry x="1185" y="535" width="60" height="30" as="geometry" />
        </mxCell>
        <mxCell id="PgDC-HXr47HgIIDUL0MW-113" value="1" style="text;html=1;strokeColor=none;fillColor=none;align=center;verticalAlign=middle;whiteSpace=wrap;rounded=0;" parent="1" vertex="1">
          <mxGeometry x="1275" y="535" width="60" height="30" as="geometry" />
        </mxCell>
        <mxCell id="PgDC-HXr47HgIIDUL0MW-114" value="1" style="text;html=1;strokeColor=none;fillColor=none;align=center;verticalAlign=middle;whiteSpace=wrap;rounded=0;" parent="1" vertex="1">
          <mxGeometry x="1365" y="535" width="60" height="30" as="geometry" />
        </mxCell>
        <mxCell id="PgDC-HXr47HgIIDUL0MW-115" value="" style="rounded=0;whiteSpace=wrap;html=1;" parent="1" vertex="1">
          <mxGeometry x="1700" y="490" width="140" height="40" as="geometry" />
        </mxCell>
        <mxCell id="PgDC-HXr47HgIIDUL0MW-116" value="" style="rounded=0;whiteSpace=wrap;html=1;" parent="1" vertex="1">
          <mxGeometry x="1840" y="490" width="130" height="40" as="geometry" />
        </mxCell>
        <mxCell id="PgDC-HXr47HgIIDUL0MW-117" value="" style="rounded=0;whiteSpace=wrap;html=1;" parent="1" vertex="1">
          <mxGeometry x="1700" y="530" width="90" height="40" as="geometry" />
        </mxCell>
        <mxCell id="PgDC-HXr47HgIIDUL0MW-118" value="" style="rounded=0;whiteSpace=wrap;html=1;" parent="1" vertex="1">
          <mxGeometry x="1790" y="530" width="90" height="40" as="geometry" />
        </mxCell>
        <mxCell id="PgDC-HXr47HgIIDUL0MW-119" value="" style="rounded=0;whiteSpace=wrap;html=1;" parent="1" vertex="1">
          <mxGeometry x="1880" y="530" width="90" height="40" as="geometry" />
        </mxCell>
        <mxCell id="PgDC-HXr47HgIIDUL0MW-120" value="7" style="text;html=1;strokeColor=none;fillColor=none;align=center;verticalAlign=middle;whiteSpace=wrap;rounded=0;" parent="1" vertex="1">
          <mxGeometry x="1640" y="460" width="60" height="30" as="geometry" />
        </mxCell>
        <mxCell id="PgDC-HXr47HgIIDUL0MW-121" value="8" style="text;html=1;strokeColor=none;fillColor=none;align=center;verticalAlign=middle;whiteSpace=wrap;rounded=0;" parent="1" vertex="1">
          <mxGeometry x="1970" y="460" width="60" height="30" as="geometry" />
        </mxCell>
        <mxCell id="PgDC-HXr47HgIIDUL0MW-122" value="8" style="text;html=1;strokeColor=none;fillColor=none;align=center;verticalAlign=middle;whiteSpace=wrap;rounded=0;" parent="1" vertex="1">
          <mxGeometry x="1970" y="570" width="60" height="30" as="geometry" />
        </mxCell>
        <mxCell id="PgDC-HXr47HgIIDUL0MW-123" value="7" style="text;html=1;strokeColor=none;fillColor=none;align=center;verticalAlign=middle;whiteSpace=wrap;rounded=0;" parent="1" vertex="1">
          <mxGeometry x="1640" y="570" width="60" height="30" as="geometry" />
        </mxCell>
        <mxCell id="PgDC-HXr47HgIIDUL0MW-124" value="7" style="text;html=1;strokeColor=none;fillColor=none;align=center;verticalAlign=middle;whiteSpace=wrap;rounded=0;" parent="1" vertex="1">
          <mxGeometry x="1740" y="495" width="60" height="30" as="geometry" />
        </mxCell>
        <mxCell id="PgDC-HXr47HgIIDUL0MW-125" value="Ãœbergabe und Einweisung" style="text;html=1;strokeColor=none;fillColor=none;align=center;verticalAlign=middle;whiteSpace=wrap;rounded=0;" parent="1" vertex="1">
          <mxGeometry x="1850" y="495" width="110" height="30" as="geometry" />
        </mxCell>
        <mxCell id="PgDC-HXr47HgIIDUL0MW-126" value="1" style="text;html=1;strokeColor=none;fillColor=none;align=center;verticalAlign=middle;whiteSpace=wrap;rounded=0;" parent="1" vertex="1">
          <mxGeometry x="1715" y="535" width="60" height="30" as="geometry" />
        </mxCell>
        <mxCell id="PgDC-HXr47HgIIDUL0MW-127" value="0" style="text;html=1;strokeColor=none;fillColor=none;align=center;verticalAlign=middle;whiteSpace=wrap;rounded=0;" parent="1" vertex="1">
          <mxGeometry x="1805" y="535" width="60" height="30" as="geometry" />
        </mxCell>
        <mxCell id="PgDC-HXr47HgIIDUL0MW-128" value="FP" style="text;html=1;strokeColor=none;fillColor=none;align=center;verticalAlign=middle;whiteSpace=wrap;rounded=0;" parent="1" vertex="1">
          <mxGeometry x="1895" y="535" width="60" height="30" as="geometry" />
        </mxCell>
        <mxCell id="PgDC-HXr47HgIIDUL0MW-129" value="" style="endArrow=classic;html=1;rounded=0;exitX=1;exitY=0;exitDx=0;exitDy=0;entryX=0;entryY=0;entryDx=0;entryDy=0;" parent="1" source="PgDC-HXr47HgIIDUL0MW-21" target="PgDC-HXr47HgIIDUL0MW-33" edge="1">
          <mxGeometry width="50" height="50" relative="1" as="geometry">
            <mxPoint x="260" y="720" as="sourcePoint" />
            <mxPoint x="310" y="670" as="targetPoint" />
          </mxGeometry>
        </mxCell>
        <mxCell id="PgDC-HXr47HgIIDUL0MW-130" value="" style="endArrow=classic;html=1;rounded=0;exitX=1;exitY=0;exitDx=0;exitDy=0;entryX=0;entryY=1;entryDx=0;entryDy=0;" parent="1" source="PgDC-HXr47HgIIDUL0MW-35" target="PgDC-HXr47HgIIDUL0MW-59" edge="1">
          <mxGeometry width="50" height="50" relative="1" as="geometry">
            <mxPoint x="680" y="640" as="sourcePoint" />
            <mxPoint x="730" y="590" as="targetPoint" />
          </mxGeometry>
        </mxCell>
        <mxCell id="PgDC-HXr47HgIIDUL0MW-131" value="" style="endArrow=classic;html=1;rounded=0;exitX=1;exitY=1;exitDx=0;exitDy=0;entryX=0;entryY=0;entryDx=0;entryDy=0;" parent="1" source="PgDC-HXr47HgIIDUL0MW-32" target="PgDC-HXr47HgIIDUL0MW-89" edge="1">
          <mxGeometry width="50" height="50" relative="1" as="geometry">
            <mxPoint x="490" y="590" as="sourcePoint" />
            <mxPoint x="950" y="590" as="targetPoint" />
          </mxGeometry>
        </mxCell>
        <mxCell id="PgDC-HXr47HgIIDUL0MW-132" value="" style="endArrow=classic;html=1;rounded=0;exitX=1;exitY=0;exitDx=0;exitDy=0;entryX=0;entryY=0;entryDx=0;entryDy=0;" parent="1" source="PgDC-HXr47HgIIDUL0MW-63" target="PgDC-HXr47HgIIDUL0MW-75" edge="1">
          <mxGeometry width="50" height="50" relative="1" as="geometry">
            <mxPoint x="1050" y="470" as="sourcePoint" />
            <mxPoint x="1100" y="420" as="targetPoint" />
          </mxGeometry>
        </mxCell>
        <mxCell id="PgDC-HXr47HgIIDUL0MW-133" value="" style="endArrow=classic;html=1;rounded=0;exitX=1;exitY=0;exitDx=0;exitDy=0;entryX=0;entryY=0;entryDx=0;entryDy=0;" parent="1" source="PgDC-HXr47HgIIDUL0MW-63" target="PgDC-HXr47HgIIDUL0MW-103" edge="1">
          <mxGeometry width="50" height="50" relative="1" as="geometry">
            <mxPoint x="1080" y="520" as="sourcePoint" />
            <mxPoint x="1130" y="470" as="targetPoint" />
          </mxGeometry>
        </mxCell>
        <mxCell id="PgDC-HXr47HgIIDUL0MW-134" value="" style="endArrow=classic;html=1;rounded=0;exitX=1;exitY=0;exitDx=0;exitDy=0;entryX=0;entryY=0;entryDx=0;entryDy=0;" parent="1" source="PgDC-HXr47HgIIDUL0MW-77" target="PgDC-HXr47HgIIDUL0MW-117" edge="1">
          <mxGeometry width="50" height="50" relative="1" as="geometry">
            <mxPoint x="1610" y="430" as="sourcePoint" />
            <mxPoint x="1660" y="380" as="targetPoint" />
          </mxGeometry>
        </mxCell>
        <mxCell id="PgDC-HXr47HgIIDUL0MW-135" value="" style="endArrow=classic;html=1;rounded=0;exitX=1;exitY=0;exitDx=0;exitDy=0;entryX=0;entryY=1;entryDx=0;entryDy=0;" parent="1" source="PgDC-HXr47HgIIDUL0MW-105" target="PgDC-HXr47HgIIDUL0MW-115" edge="1">
          <mxGeometry width="50" height="50" relative="1" as="geometry">
            <mxPoint x="1550" y="580" as="sourcePoint" />
            <mxPoint x="1600" y="530" as="targetPoint" />
          </mxGeometry>
        </mxCell>
        <mxCell id="PgDC-HXr47HgIIDUL0MW-136" value="" style="endArrow=classic;html=1;rounded=0;exitX=1;exitY=0;exitDx=0;exitDy=0;entryX=0;entryY=0;entryDx=0;entryDy=0;" parent="1" source="PgDC-HXr47HgIIDUL0MW-91" target="PgDC-HXr47HgIIDUL0MW-117" edge="1">
          <mxGeometry width="50" height="50" relative="1" as="geometry">
            <mxPoint x="1550" y="720" as="sourcePoint" />
            <mxPoint x="1600" y="670" as="targetPoint" />
          </mxGeometry>
        </mxCell>
      </root>
    </mxGraphModel>
  </diagram>
  <diagram id="99EbeLhjcMrZO9Gg6lvK" name="PrÃ¼fungsaufgabe1">
    <mxGraphModel dx="1434" dy="746" grid="1" gridSize="10" guides="1" tooltips="1" connect="1" arrows="1" fold="1" page="1" pageScale="1" pageWidth="827" pageHeight="1169" math="0" shadow="0">
      <root>
        <mxCell id="0" />
        <mxCell id="1" parent="0" />
        <mxCell id="YPmfC3U80X2HN4cl7KSL-1" value="" style="rounded=0;whiteSpace=wrap;html=1;" vertex="1" parent="1">
          <mxGeometry x="60" y="50" width="140" height="40" as="geometry" />
        </mxCell>
        <mxCell id="YPmfC3U80X2HN4cl7KSL-2" value="" style="rounded=0;whiteSpace=wrap;html=1;" vertex="1" parent="1">
          <mxGeometry x="200" y="50" width="130" height="40" as="geometry" />
        </mxCell>
        <mxCell id="YPmfC3U80X2HN4cl7KSL-3" value="" style="rounded=0;whiteSpace=wrap;html=1;" vertex="1" parent="1">
          <mxGeometry x="60" y="90" width="90" height="40" as="geometry" />
        </mxCell>
        <mxCell id="YPmfC3U80X2HN4cl7KSL-4" value="" style="rounded=0;whiteSpace=wrap;html=1;" vertex="1" parent="1">
          <mxGeometry x="150" y="90" width="90" height="40" as="geometry" />
        </mxCell>
        <mxCell id="YPmfC3U80X2HN4cl7KSL-5" value="" style="rounded=0;whiteSpace=wrap;html=1;" vertex="1" parent="1">
          <mxGeometry x="240" y="90" width="90" height="40" as="geometry" />
        </mxCell>
        <mxCell id="YPmfC3U80X2HN4cl7KSL-6" value="FAZ" style="text;html=1;strokeColor=none;fillColor=none;align=center;verticalAlign=middle;whiteSpace=wrap;rounded=0;" vertex="1" parent="1">
          <mxGeometry y="20" width="60" height="30" as="geometry" />
        </mxCell>
        <mxCell id="YPmfC3U80X2HN4cl7KSL-7" value="FEZ" style="text;html=1;strokeColor=none;fillColor=none;align=center;verticalAlign=middle;whiteSpace=wrap;rounded=0;" vertex="1" parent="1">
          <mxGeometry x="330" y="20" width="60" height="30" as="geometry" />
        </mxCell>
        <mxCell id="YPmfC3U80X2HN4cl7KSL-8" value="SEZ" style="text;html=1;strokeColor=none;fillColor=none;align=center;verticalAlign=middle;whiteSpace=wrap;rounded=0;" vertex="1" parent="1">
          <mxGeometry x="330" y="130" width="60" height="30" as="geometry" />
        </mxCell>
        <mxCell id="YPmfC3U80X2HN4cl7KSL-9" value="SAZ" style="text;html=1;strokeColor=none;fillColor=none;align=center;verticalAlign=middle;whiteSpace=wrap;rounded=0;" vertex="1" parent="1">
          <mxGeometry y="130" width="60" height="30" as="geometry" />
        </mxCell>
        <mxCell id="YPmfC3U80X2HN4cl7KSL-10" value="Vorgang" style="text;html=1;strokeColor=none;fillColor=none;align=center;verticalAlign=middle;whiteSpace=wrap;rounded=0;" vertex="1" parent="1">
          <mxGeometry x="100" y="55" width="60" height="30" as="geometry" />
        </mxCell>
        <mxCell id="YPmfC3U80X2HN4cl7KSL-11" value="Beschreibung" style="text;html=1;strokeColor=none;fillColor=none;align=center;verticalAlign=middle;whiteSpace=wrap;rounded=0;" vertex="1" parent="1">
          <mxGeometry x="235" y="55" width="60" height="30" as="geometry" />
        </mxCell>
        <mxCell id="YPmfC3U80X2HN4cl7KSL-12" value="Dauer" style="text;html=1;strokeColor=none;fillColor=none;align=center;verticalAlign=middle;whiteSpace=wrap;rounded=0;" vertex="1" parent="1">
          <mxGeometry x="75" y="95" width="60" height="30" as="geometry" />
        </mxCell>
        <mxCell id="YPmfC3U80X2HN4cl7KSL-13" value="GP" style="text;html=1;strokeColor=none;fillColor=none;align=center;verticalAlign=middle;whiteSpace=wrap;rounded=0;" vertex="1" parent="1">
          <mxGeometry x="165" y="95" width="60" height="30" as="geometry" />
        </mxCell>
        <mxCell id="YPmfC3U80X2HN4cl7KSL-14" value="FP" style="text;html=1;strokeColor=none;fillColor=none;align=center;verticalAlign=middle;whiteSpace=wrap;rounded=0;" vertex="1" parent="1">
          <mxGeometry x="255" y="95" width="60" height="30" as="geometry" />
        </mxCell>
        <mxCell id="YPmfC3U80X2HN4cl7KSL-15" value="" style="rounded=0;whiteSpace=wrap;html=1;" vertex="1" parent="1">
          <mxGeometry x="60" y="370" width="140" height="40" as="geometry" />
        </mxCell>
        <mxCell id="YPmfC3U80X2HN4cl7KSL-16" value="" style="rounded=0;whiteSpace=wrap;html=1;" vertex="1" parent="1">
          <mxGeometry x="200" y="370" width="130" height="40" as="geometry" />
        </mxCell>
        <mxCell id="YPmfC3U80X2HN4cl7KSL-17" value="" style="rounded=0;whiteSpace=wrap;html=1;" vertex="1" parent="1">
          <mxGeometry x="60" y="410" width="90" height="40" as="geometry" />
        </mxCell>
        <mxCell id="YPmfC3U80X2HN4cl7KSL-18" value="" style="rounded=0;whiteSpace=wrap;html=1;" vertex="1" parent="1">
          <mxGeometry x="150" y="410" width="90" height="40" as="geometry" />
        </mxCell>
        <mxCell id="YPmfC3U80X2HN4cl7KSL-19" value="" style="rounded=0;whiteSpace=wrap;html=1;" vertex="1" parent="1">
          <mxGeometry x="240" y="410" width="90" height="40" as="geometry" />
        </mxCell>
        <mxCell id="YPmfC3U80X2HN4cl7KSL-20" value="0" style="text;html=1;strokeColor=none;fillColor=none;align=center;verticalAlign=middle;whiteSpace=wrap;rounded=0;" vertex="1" parent="1">
          <mxGeometry y="340" width="60" height="30" as="geometry" />
        </mxCell>
        <mxCell id="YPmfC3U80X2HN4cl7KSL-21" value="10" style="text;html=1;strokeColor=none;fillColor=none;align=center;verticalAlign=middle;whiteSpace=wrap;rounded=0;" vertex="1" parent="1">
          <mxGeometry x="330" y="340" width="60" height="30" as="geometry" />
        </mxCell>
        <mxCell id="YPmfC3U80X2HN4cl7KSL-22" value="10" style="text;html=1;strokeColor=none;fillColor=none;align=center;verticalAlign=middle;whiteSpace=wrap;rounded=0;" vertex="1" parent="1">
          <mxGeometry x="330" y="450" width="60" height="30" as="geometry" />
        </mxCell>
        <mxCell id="YPmfC3U80X2HN4cl7KSL-23" value="0" style="text;html=1;strokeColor=none;fillColor=none;align=center;verticalAlign=middle;whiteSpace=wrap;rounded=0;" vertex="1" parent="1">
          <mxGeometry y="450" width="60" height="30" as="geometry" />
        </mxCell>
        <mxCell id="YPmfC3U80X2HN4cl7KSL-24" value="A" style="text;html=1;strokeColor=none;fillColor=none;align=center;verticalAlign=middle;whiteSpace=wrap;rounded=0;" vertex="1" parent="1">
          <mxGeometry x="100" y="375" width="60" height="30" as="geometry" />
        </mxCell>
        <mxCell id="YPmfC3U80X2HN4cl7KSL-25" value="Vorbereitung" style="text;html=1;strokeColor=none;fillColor=none;align=center;verticalAlign=middle;whiteSpace=wrap;rounded=0;" vertex="1" parent="1">
          <mxGeometry x="235" y="375" width="60" height="30" as="geometry" />
        </mxCell>
        <mxCell id="YPmfC3U80X2HN4cl7KSL-26" value="10" style="text;html=1;strokeColor=none;fillColor=none;align=center;verticalAlign=middle;whiteSpace=wrap;rounded=0;" vertex="1" parent="1">
          <mxGeometry x="75" y="415" width="60" height="30" as="geometry" />
        </mxCell>
        <mxCell id="YPmfC3U80X2HN4cl7KSL-27" value="0" style="text;html=1;strokeColor=none;fillColor=none;align=center;verticalAlign=middle;whiteSpace=wrap;rounded=0;" vertex="1" parent="1">
          <mxGeometry x="165" y="415" width="60" height="30" as="geometry" />
        </mxCell>
        <mxCell id="YPmfC3U80X2HN4cl7KSL-28" value="0" style="text;html=1;strokeColor=none;fillColor=none;align=center;verticalAlign=middle;whiteSpace=wrap;rounded=0;" vertex="1" parent="1">
          <mxGeometry x="255" y="415" width="60" height="30" as="geometry" />
        </mxCell>
        <mxCell id="YPmfC3U80X2HN4cl7KSL-29" value="" style="rounded=0;whiteSpace=wrap;html=1;" vertex="1" parent="1">
          <mxGeometry x="540" y="220" width="140" height="40" as="geometry" />
        </mxCell>
        <mxCell id="YPmfC3U80X2HN4cl7KSL-30" value="" style="rounded=0;whiteSpace=wrap;html=1;" vertex="1" parent="1">
          <mxGeometry x="680" y="220" width="130" height="40" as="geometry" />
        </mxCell>
        <mxCell id="YPmfC3U80X2HN4cl7KSL-31" value="" style="rounded=0;whiteSpace=wrap;html=1;" vertex="1" parent="1">
          <mxGeometry x="540" y="260" width="90" height="40" as="geometry" />
        </mxCell>
        <mxCell id="YPmfC3U80X2HN4cl7KSL-32" value="" style="rounded=0;whiteSpace=wrap;html=1;" vertex="1" parent="1">
          <mxGeometry x="630" y="260" width="90" height="40" as="geometry" />
        </mxCell>
        <mxCell id="YPmfC3U80X2HN4cl7KSL-33" value="" style="rounded=0;whiteSpace=wrap;html=1;" vertex="1" parent="1">
          <mxGeometry x="720" y="260" width="90" height="40" as="geometry" />
        </mxCell>
        <mxCell id="YPmfC3U80X2HN4cl7KSL-34" value="10" style="text;html=1;strokeColor=none;fillColor=none;align=center;verticalAlign=middle;whiteSpace=wrap;rounded=0;" vertex="1" parent="1">
          <mxGeometry x="480" y="190" width="60" height="30" as="geometry" />
        </mxCell>
        <mxCell id="YPmfC3U80X2HN4cl7KSL-35" value="14" style="text;html=1;strokeColor=none;fillColor=none;align=center;verticalAlign=middle;whiteSpace=wrap;rounded=0;" vertex="1" parent="1">
          <mxGeometry x="810" y="190" width="60" height="30" as="geometry" />
        </mxCell>
        <mxCell id="YPmfC3U80X2HN4cl7KSL-36" value="14" style="text;html=1;strokeColor=none;fillColor=none;align=center;verticalAlign=middle;whiteSpace=wrap;rounded=0;" vertex="1" parent="1">
          <mxGeometry x="810" y="300" width="60" height="30" as="geometry" />
        </mxCell>
        <mxCell id="YPmfC3U80X2HN4cl7KSL-37" value="10" style="text;html=1;strokeColor=none;fillColor=none;align=center;verticalAlign=middle;whiteSpace=wrap;rounded=0;" vertex="1" parent="1">
          <mxGeometry x="480" y="300" width="60" height="30" as="geometry" />
        </mxCell>
        <mxCell id="YPmfC3U80X2HN4cl7KSL-38" value="B" style="text;html=1;strokeColor=none;fillColor=none;align=center;verticalAlign=middle;whiteSpace=wrap;rounded=0;" vertex="1" parent="1">
          <mxGeometry x="580" y="225" width="60" height="30" as="geometry" />
        </mxCell>
        <mxCell id="YPmfC3U80X2HN4cl7KSL-39" value="Beschaffung Hardware" style="text;html=1;strokeColor=none;fillColor=none;align=center;verticalAlign=middle;whiteSpace=wrap;rounded=0;" vertex="1" parent="1">
          <mxGeometry x="715" y="225" width="60" height="30" as="geometry" />
        </mxCell>
        <mxCell id="YPmfC3U80X2HN4cl7KSL-40" value="4" style="text;html=1;strokeColor=none;fillColor=none;align=center;verticalAlign=middle;whiteSpace=wrap;rounded=0;" vertex="1" parent="1">
          <mxGeometry x="555" y="265" width="60" height="30" as="geometry" />
        </mxCell>
        <mxCell id="YPmfC3U80X2HN4cl7KSL-41" value="0" style="text;html=1;strokeColor=none;fillColor=none;align=center;verticalAlign=middle;whiteSpace=wrap;rounded=0;" vertex="1" parent="1">
          <mxGeometry x="645" y="265" width="60" height="30" as="geometry" />
        </mxCell>
        <mxCell id="YPmfC3U80X2HN4cl7KSL-42" value="0" style="text;html=1;strokeColor=none;fillColor=none;align=center;verticalAlign=middle;whiteSpace=wrap;rounded=0;" vertex="1" parent="1">
          <mxGeometry x="735" y="265" width="60" height="30" as="geometry" />
        </mxCell>
        <mxCell id="YPmfC3U80X2HN4cl7KSL-43" value="" style="rounded=0;whiteSpace=wrap;html=1;" vertex="1" parent="1">
          <mxGeometry x="540" y="470" width="140" height="40" as="geometry" />
        </mxCell>
        <mxCell id="YPmfC3U80X2HN4cl7KSL-44" value="" style="rounded=0;whiteSpace=wrap;html=1;" vertex="1" parent="1">
          <mxGeometry x="680" y="470" width="130" height="40" as="geometry" />
        </mxCell>
        <mxCell id="YPmfC3U80X2HN4cl7KSL-45" value="" style="rounded=0;whiteSpace=wrap;html=1;" vertex="1" parent="1">
          <mxGeometry x="540" y="510" width="90" height="40" as="geometry" />
        </mxCell>
        <mxCell id="YPmfC3U80X2HN4cl7KSL-46" value="" style="rounded=0;whiteSpace=wrap;html=1;" vertex="1" parent="1">
          <mxGeometry x="630" y="510" width="90" height="40" as="geometry" />
        </mxCell>
        <mxCell id="YPmfC3U80X2HN4cl7KSL-47" value="" style="rounded=0;whiteSpace=wrap;html=1;" vertex="1" parent="1">
          <mxGeometry x="720" y="510" width="90" height="40" as="geometry" />
        </mxCell>
        <mxCell id="YPmfC3U80X2HN4cl7KSL-48" value="10" style="text;html=1;strokeColor=none;fillColor=none;align=center;verticalAlign=middle;whiteSpace=wrap;rounded=0;" vertex="1" parent="1">
          <mxGeometry x="480" y="440" width="60" height="30" as="geometry" />
        </mxCell>
        <mxCell id="YPmfC3U80X2HN4cl7KSL-49" value="19" style="text;html=1;strokeColor=none;fillColor=none;align=center;verticalAlign=middle;whiteSpace=wrap;rounded=0;" vertex="1" parent="1">
          <mxGeometry x="810" y="440" width="60" height="30" as="geometry" />
        </mxCell>
        <mxCell id="YPmfC3U80X2HN4cl7KSL-50" value="21" style="text;html=1;strokeColor=none;fillColor=none;align=center;verticalAlign=middle;whiteSpace=wrap;rounded=0;" vertex="1" parent="1">
          <mxGeometry x="810" y="550" width="60" height="30" as="geometry" />
        </mxCell>
        <mxCell id="YPmfC3U80X2HN4cl7KSL-51" value="12" style="text;html=1;strokeColor=none;fillColor=none;align=center;verticalAlign=middle;whiteSpace=wrap;rounded=0;" vertex="1" parent="1">
          <mxGeometry x="480" y="550" width="60" height="30" as="geometry" />
        </mxCell>
        <mxCell id="YPmfC3U80X2HN4cl7KSL-52" value="C" style="text;html=1;strokeColor=none;fillColor=none;align=center;verticalAlign=middle;whiteSpace=wrap;rounded=0;" vertex="1" parent="1">
          <mxGeometry x="580" y="475" width="60" height="30" as="geometry" />
        </mxCell>
        <mxCell id="YPmfC3U80X2HN4cl7KSL-53" value="Installation Netzwerk" style="text;html=1;strokeColor=none;fillColor=none;align=center;verticalAlign=middle;whiteSpace=wrap;rounded=0;" vertex="1" parent="1">
          <mxGeometry x="715" y="475" width="60" height="30" as="geometry" />
        </mxCell>
        <mxCell id="YPmfC3U80X2HN4cl7KSL-54" value="9" style="text;html=1;strokeColor=none;fillColor=none;align=center;verticalAlign=middle;whiteSpace=wrap;rounded=0;" vertex="1" parent="1">
          <mxGeometry x="555" y="515" width="60" height="30" as="geometry" />
        </mxCell>
        <mxCell id="YPmfC3U80X2HN4cl7KSL-55" value="2" style="text;html=1;strokeColor=none;fillColor=none;align=center;verticalAlign=middle;whiteSpace=wrap;rounded=0;" vertex="1" parent="1">
          <mxGeometry x="645" y="515" width="60" height="30" as="geometry" />
        </mxCell>
        <mxCell id="YPmfC3U80X2HN4cl7KSL-56" value="2" style="text;html=1;strokeColor=none;fillColor=none;align=center;verticalAlign=middle;whiteSpace=wrap;rounded=0;" vertex="1" parent="1">
          <mxGeometry x="735" y="515" width="60" height="30" as="geometry" />
        </mxCell>
        <mxCell id="YPmfC3U80X2HN4cl7KSL-57" value="" style="rounded=0;whiteSpace=wrap;html=1;" vertex="1" parent="1">
          <mxGeometry x="1000" y="220" width="140" height="40" as="geometry" />
        </mxCell>
        <mxCell id="YPmfC3U80X2HN4cl7KSL-58" value="" style="rounded=0;whiteSpace=wrap;html=1;" vertex="1" parent="1">
          <mxGeometry x="1140" y="220" width="130" height="40" as="geometry" />
        </mxCell>
        <mxCell id="YPmfC3U80X2HN4cl7KSL-59" value="" style="rounded=0;whiteSpace=wrap;html=1;" vertex="1" parent="1">
          <mxGeometry x="1000" y="260" width="90" height="40" as="geometry" />
        </mxCell>
        <mxCell id="YPmfC3U80X2HN4cl7KSL-60" value="" style="rounded=0;whiteSpace=wrap;html=1;" vertex="1" parent="1">
          <mxGeometry x="1090" y="260" width="90" height="40" as="geometry" />
        </mxCell>
        <mxCell id="YPmfC3U80X2HN4cl7KSL-61" value="" style="rounded=0;whiteSpace=wrap;html=1;" vertex="1" parent="1">
          <mxGeometry x="1180" y="260" width="90" height="40" as="geometry" />
        </mxCell>
        <mxCell id="YPmfC3U80X2HN4cl7KSL-62" value="14" style="text;html=1;strokeColor=none;fillColor=none;align=center;verticalAlign=middle;whiteSpace=wrap;rounded=0;" vertex="1" parent="1">
          <mxGeometry x="940" y="190" width="60" height="30" as="geometry" />
        </mxCell>
        <mxCell id="YPmfC3U80X2HN4cl7KSL-63" value="21" style="text;html=1;strokeColor=none;fillColor=none;align=center;verticalAlign=middle;whiteSpace=wrap;rounded=0;" vertex="1" parent="1">
          <mxGeometry x="1270" y="190" width="60" height="30" as="geometry" />
        </mxCell>
        <mxCell id="YPmfC3U80X2HN4cl7KSL-64" value="21" style="text;html=1;strokeColor=none;fillColor=none;align=center;verticalAlign=middle;whiteSpace=wrap;rounded=0;" vertex="1" parent="1">
          <mxGeometry x="1270" y="300" width="60" height="30" as="geometry" />
        </mxCell>
        <mxCell id="YPmfC3U80X2HN4cl7KSL-65" value="14" style="text;html=1;strokeColor=none;fillColor=none;align=center;verticalAlign=middle;whiteSpace=wrap;rounded=0;" vertex="1" parent="1">
          <mxGeometry x="940" y="300" width="60" height="30" as="geometry" />
        </mxCell>
        <mxCell id="YPmfC3U80X2HN4cl7KSL-66" value="D" style="text;html=1;strokeColor=none;fillColor=none;align=center;verticalAlign=middle;whiteSpace=wrap;rounded=0;" vertex="1" parent="1">
          <mxGeometry x="1040" y="225" width="60" height="30" as="geometry" />
        </mxCell>
        <mxCell id="YPmfC3U80X2HN4cl7KSL-67" value="Aufbau Computer" style="text;html=1;strokeColor=none;fillColor=none;align=center;verticalAlign=middle;whiteSpace=wrap;rounded=0;" vertex="1" parent="1">
          <mxGeometry x="1175" y="225" width="60" height="30" as="geometry" />
        </mxCell>
        <mxCell id="YPmfC3U80X2HN4cl7KSL-68" value="7" style="text;html=1;strokeColor=none;fillColor=none;align=center;verticalAlign=middle;whiteSpace=wrap;rounded=0;" vertex="1" parent="1">
          <mxGeometry x="1015" y="265" width="60" height="30" as="geometry" />
        </mxCell>
        <mxCell id="YPmfC3U80X2HN4cl7KSL-69" value="0" style="text;html=1;strokeColor=none;fillColor=none;align=center;verticalAlign=middle;whiteSpace=wrap;rounded=0;" vertex="1" parent="1">
          <mxGeometry x="1105" y="265" width="60" height="30" as="geometry" />
        </mxCell>
        <mxCell id="YPmfC3U80X2HN4cl7KSL-70" value="0" style="text;html=1;strokeColor=none;fillColor=none;align=center;verticalAlign=middle;whiteSpace=wrap;rounded=0;" vertex="1" parent="1">
          <mxGeometry x="1195" y="265" width="60" height="30" as="geometry" />
        </mxCell>
        <mxCell id="YPmfC3U80X2HN4cl7KSL-71" value="" style="rounded=0;whiteSpace=wrap;html=1;" vertex="1" parent="1">
          <mxGeometry x="1460" y="390" width="140" height="40" as="geometry" />
        </mxCell>
        <mxCell id="YPmfC3U80X2HN4cl7KSL-72" value="" style="rounded=0;whiteSpace=wrap;html=1;" vertex="1" parent="1">
          <mxGeometry x="1600" y="390" width="130" height="40" as="geometry" />
        </mxCell>
        <mxCell id="YPmfC3U80X2HN4cl7KSL-73" value="" style="rounded=0;whiteSpace=wrap;html=1;" vertex="1" parent="1">
          <mxGeometry x="1460" y="430" width="90" height="40" as="geometry" />
        </mxCell>
        <mxCell id="YPmfC3U80X2HN4cl7KSL-74" value="" style="rounded=0;whiteSpace=wrap;html=1;" vertex="1" parent="1">
          <mxGeometry x="1550" y="430" width="90" height="40" as="geometry" />
        </mxCell>
        <mxCell id="YPmfC3U80X2HN4cl7KSL-75" value="" style="rounded=0;whiteSpace=wrap;html=1;" vertex="1" parent="1">
          <mxGeometry x="1640" y="430" width="90" height="40" as="geometry" />
        </mxCell>
        <mxCell id="YPmfC3U80X2HN4cl7KSL-76" value="21" style="text;html=1;strokeColor=none;fillColor=none;align=center;verticalAlign=middle;whiteSpace=wrap;rounded=0;" vertex="1" parent="1">
          <mxGeometry x="1400" y="360" width="60" height="30" as="geometry" />
        </mxCell>
        <mxCell id="YPmfC3U80X2HN4cl7KSL-77" value="26" style="text;html=1;strokeColor=none;fillColor=none;align=center;verticalAlign=middle;whiteSpace=wrap;rounded=0;" vertex="1" parent="1">
          <mxGeometry x="1730" y="360" width="60" height="30" as="geometry" />
        </mxCell>
        <mxCell id="YPmfC3U80X2HN4cl7KSL-78" value="26" style="text;html=1;strokeColor=none;fillColor=none;align=center;verticalAlign=middle;whiteSpace=wrap;rounded=0;" vertex="1" parent="1">
          <mxGeometry x="1730" y="470" width="60" height="30" as="geometry" />
        </mxCell>
        <mxCell id="YPmfC3U80X2HN4cl7KSL-79" value="21" style="text;html=1;strokeColor=none;fillColor=none;align=center;verticalAlign=middle;whiteSpace=wrap;rounded=0;" vertex="1" parent="1">
          <mxGeometry x="1400" y="470" width="60" height="30" as="geometry" />
        </mxCell>
        <mxCell id="YPmfC3U80X2HN4cl7KSL-80" value="E" style="text;html=1;strokeColor=none;fillColor=none;align=center;verticalAlign=middle;whiteSpace=wrap;rounded=0;" vertex="1" parent="1">
          <mxGeometry x="1500" y="395" width="60" height="30" as="geometry" />
        </mxCell>
        <mxCell id="YPmfC3U80X2HN4cl7KSL-81" value="Aufbau Computer" style="text;html=1;strokeColor=none;fillColor=none;align=center;verticalAlign=middle;whiteSpace=wrap;rounded=0;" vertex="1" parent="1">
          <mxGeometry x="1635" y="395" width="60" height="30" as="geometry" />
        </mxCell>
        <mxCell id="YPmfC3U80X2HN4cl7KSL-82" value="5" style="text;html=1;strokeColor=none;fillColor=none;align=center;verticalAlign=middle;whiteSpace=wrap;rounded=0;" vertex="1" parent="1">
          <mxGeometry x="1475" y="435" width="60" height="30" as="geometry" />
        </mxCell>
        <mxCell id="YPmfC3U80X2HN4cl7KSL-83" value="0" style="text;html=1;strokeColor=none;fillColor=none;align=center;verticalAlign=middle;whiteSpace=wrap;rounded=0;" vertex="1" parent="1">
          <mxGeometry x="1565" y="435" width="60" height="30" as="geometry" />
        </mxCell>
        <mxCell id="YPmfC3U80X2HN4cl7KSL-84" value="0" style="text;html=1;strokeColor=none;fillColor=none;align=center;verticalAlign=middle;whiteSpace=wrap;rounded=0;" vertex="1" parent="1">
          <mxGeometry x="1655" y="435" width="60" height="30" as="geometry" />
        </mxCell>
        <mxCell id="YPmfC3U80X2HN4cl7KSL-85" value="" style="rounded=0;whiteSpace=wrap;html=1;" vertex="1" parent="1">
          <mxGeometry x="1900" y="230" width="140" height="40" as="geometry" />
        </mxCell>
        <mxCell id="YPmfC3U80X2HN4cl7KSL-86" value="" style="rounded=0;whiteSpace=wrap;html=1;" vertex="1" parent="1">
          <mxGeometry x="2040" y="230" width="130" height="40" as="geometry" />
        </mxCell>
        <mxCell id="YPmfC3U80X2HN4cl7KSL-87" value="" style="rounded=0;whiteSpace=wrap;html=1;" vertex="1" parent="1">
          <mxGeometry x="1900" y="270" width="90" height="40" as="geometry" />
        </mxCell>
        <mxCell id="YPmfC3U80X2HN4cl7KSL-88" value="" style="rounded=0;whiteSpace=wrap;html=1;" vertex="1" parent="1">
          <mxGeometry x="1990" y="270" width="90" height="40" as="geometry" />
        </mxCell>
        <mxCell id="YPmfC3U80X2HN4cl7KSL-89" value="" style="rounded=0;whiteSpace=wrap;html=1;" vertex="1" parent="1">
          <mxGeometry x="2080" y="270" width="90" height="40" as="geometry" />
        </mxCell>
        <mxCell id="YPmfC3U80X2HN4cl7KSL-90" value="26" style="text;html=1;strokeColor=none;fillColor=none;align=center;verticalAlign=middle;whiteSpace=wrap;rounded=0;" vertex="1" parent="1">
          <mxGeometry x="1840" y="200" width="60" height="30" as="geometry" />
        </mxCell>
        <mxCell id="YPmfC3U80X2HN4cl7KSL-91" value="28" style="text;html=1;strokeColor=none;fillColor=none;align=center;verticalAlign=middle;whiteSpace=wrap;rounded=0;" vertex="1" parent="1">
          <mxGeometry x="2170" y="200" width="60" height="30" as="geometry" />
        </mxCell>
        <mxCell id="YPmfC3U80X2HN4cl7KSL-92" value="29" style="text;html=1;strokeColor=none;fillColor=none;align=center;verticalAlign=middle;whiteSpace=wrap;rounded=0;" vertex="1" parent="1">
          <mxGeometry x="2170" y="310" width="60" height="30" as="geometry" />
        </mxCell>
        <mxCell id="YPmfC3U80X2HN4cl7KSL-93" value="27" style="text;html=1;strokeColor=none;fillColor=none;align=center;verticalAlign=middle;whiteSpace=wrap;rounded=0;" vertex="1" parent="1">
          <mxGeometry x="1840" y="310" width="60" height="30" as="geometry" />
        </mxCell>
        <mxCell id="YPmfC3U80X2HN4cl7KSL-94" value="F" style="text;html=1;strokeColor=none;fillColor=none;align=center;verticalAlign=middle;whiteSpace=wrap;rounded=0;" vertex="1" parent="1">
          <mxGeometry x="1940" y="235" width="60" height="30" as="geometry" />
        </mxCell>
        <mxCell id="YPmfC3U80X2HN4cl7KSL-95" value="Anwenderschulung" style="text;html=1;strokeColor=none;fillColor=none;align=center;verticalAlign=middle;whiteSpace=wrap;rounded=0;" vertex="1" parent="1">
          <mxGeometry x="2050" y="235" width="85" height="30" as="geometry" />
        </mxCell>
        <mxCell id="YPmfC3U80X2HN4cl7KSL-96" value="2" style="text;html=1;strokeColor=none;fillColor=none;align=center;verticalAlign=middle;whiteSpace=wrap;rounded=0;" vertex="1" parent="1">
          <mxGeometry x="1915" y="275" width="60" height="30" as="geometry" />
        </mxCell>
        <mxCell id="YPmfC3U80X2HN4cl7KSL-97" value="1" style="text;html=1;strokeColor=none;fillColor=none;align=center;verticalAlign=middle;whiteSpace=wrap;rounded=0;" vertex="1" parent="1">
          <mxGeometry x="2005" y="275" width="60" height="30" as="geometry" />
        </mxCell>
        <mxCell id="YPmfC3U80X2HN4cl7KSL-98" value="1" style="text;html=1;strokeColor=none;fillColor=none;align=center;verticalAlign=middle;whiteSpace=wrap;rounded=0;" vertex="1" parent="1">
          <mxGeometry x="2095" y="275" width="60" height="30" as="geometry" />
        </mxCell>
        <mxCell id="YPmfC3U80X2HN4cl7KSL-99" value="" style="rounded=0;whiteSpace=wrap;html=1;" vertex="1" parent="1">
          <mxGeometry x="1900" y="505" width="140" height="40" as="geometry" />
        </mxCell>
        <mxCell id="YPmfC3U80X2HN4cl7KSL-100" value="" style="rounded=0;whiteSpace=wrap;html=1;" vertex="1" parent="1">
          <mxGeometry x="2040" y="505" width="130" height="40" as="geometry" />
        </mxCell>
        <mxCell id="YPmfC3U80X2HN4cl7KSL-101" value="" style="rounded=0;whiteSpace=wrap;html=1;" vertex="1" parent="1">
          <mxGeometry x="1900" y="545" width="90" height="40" as="geometry" />
        </mxCell>
        <mxCell id="YPmfC3U80X2HN4cl7KSL-102" value="" style="rounded=0;whiteSpace=wrap;html=1;" vertex="1" parent="1">
          <mxGeometry x="1990" y="545" width="90" height="40" as="geometry" />
        </mxCell>
        <mxCell id="YPmfC3U80X2HN4cl7KSL-103" value="" style="rounded=0;whiteSpace=wrap;html=1;" vertex="1" parent="1">
          <mxGeometry x="2080" y="545" width="90" height="40" as="geometry" />
        </mxCell>
        <mxCell id="YPmfC3U80X2HN4cl7KSL-104" value="26" style="text;html=1;strokeColor=none;fillColor=none;align=center;verticalAlign=middle;whiteSpace=wrap;rounded=0;" vertex="1" parent="1">
          <mxGeometry x="1840" y="475" width="60" height="30" as="geometry" />
        </mxCell>
        <mxCell id="YPmfC3U80X2HN4cl7KSL-105" value="29" style="text;html=1;strokeColor=none;fillColor=none;align=center;verticalAlign=middle;whiteSpace=wrap;rounded=0;" vertex="1" parent="1">
          <mxGeometry x="2170" y="475" width="60" height="30" as="geometry" />
        </mxCell>
        <mxCell id="YPmfC3U80X2HN4cl7KSL-106" value="29" style="text;html=1;strokeColor=none;fillColor=none;align=center;verticalAlign=middle;whiteSpace=wrap;rounded=0;" vertex="1" parent="1">
          <mxGeometry x="2170" y="585" width="60" height="30" as="geometry" />
        </mxCell>
        <mxCell id="YPmfC3U80X2HN4cl7KSL-107" value="26" style="text;html=1;strokeColor=none;fillColor=none;align=center;verticalAlign=middle;whiteSpace=wrap;rounded=0;" vertex="1" parent="1">
          <mxGeometry x="1840" y="585" width="60" height="30" as="geometry" />
        </mxCell>
        <mxCell id="YPmfC3U80X2HN4cl7KSL-108" value="G" style="text;html=1;strokeColor=none;fillColor=none;align=center;verticalAlign=middle;whiteSpace=wrap;rounded=0;" vertex="1" parent="1">
          <mxGeometry x="1940" y="510" width="60" height="30" as="geometry" />
        </mxCell>
        <mxCell id="YPmfC3U80X2HN4cl7KSL-109" value="Test und Inbetriebnahme" style="text;html=1;strokeColor=none;fillColor=none;align=center;verticalAlign=middle;whiteSpace=wrap;rounded=0;" vertex="1" parent="1">
          <mxGeometry x="2075" y="510" width="60" height="30" as="geometry" />
        </mxCell>
        <mxCell id="YPmfC3U80X2HN4cl7KSL-110" value="3" style="text;html=1;strokeColor=none;fillColor=none;align=center;verticalAlign=middle;whiteSpace=wrap;rounded=0;" vertex="1" parent="1">
          <mxGeometry x="1915" y="550" width="60" height="30" as="geometry" />
        </mxCell>
        <mxCell id="YPmfC3U80X2HN4cl7KSL-111" value="0" style="text;html=1;strokeColor=none;fillColor=none;align=center;verticalAlign=middle;whiteSpace=wrap;rounded=0;" vertex="1" parent="1">
          <mxGeometry x="2005" y="550" width="60" height="30" as="geometry" />
        </mxCell>
        <mxCell id="YPmfC3U80X2HN4cl7KSL-112" value="0" style="text;html=1;strokeColor=none;fillColor=none;align=center;verticalAlign=middle;whiteSpace=wrap;rounded=0;" vertex="1" parent="1">
          <mxGeometry x="2095" y="550" width="60" height="30" as="geometry" />
        </mxCell>
        <mxCell id="YPmfC3U80X2HN4cl7KSL-113" value="" style="rounded=0;whiteSpace=wrap;html=1;" vertex="1" parent="1">
          <mxGeometry x="2460" y="390" width="140" height="40" as="geometry" />
        </mxCell>
        <mxCell id="YPmfC3U80X2HN4cl7KSL-114" value="" style="rounded=0;whiteSpace=wrap;html=1;" vertex="1" parent="1">
          <mxGeometry x="2600" y="390" width="130" height="40" as="geometry" />
        </mxCell>
        <mxCell id="YPmfC3U80X2HN4cl7KSL-115" value="" style="rounded=0;whiteSpace=wrap;html=1;" vertex="1" parent="1">
          <mxGeometry x="2460" y="430" width="90" height="40" as="geometry" />
        </mxCell>
        <mxCell id="YPmfC3U80X2HN4cl7KSL-116" value="" style="rounded=0;whiteSpace=wrap;html=1;" vertex="1" parent="1">
          <mxGeometry x="2550" y="430" width="90" height="40" as="geometry" />
        </mxCell>
        <mxCell id="YPmfC3U80X2HN4cl7KSL-117" value="" style="rounded=0;whiteSpace=wrap;html=1;" vertex="1" parent="1">
          <mxGeometry x="2640" y="430" width="90" height="40" as="geometry" />
        </mxCell>
        <mxCell id="YPmfC3U80X2HN4cl7KSL-118" value="29" style="text;html=1;strokeColor=none;fillColor=none;align=center;verticalAlign=middle;whiteSpace=wrap;rounded=0;" vertex="1" parent="1">
          <mxGeometry x="2400" y="360" width="60" height="30" as="geometry" />
        </mxCell>
        <mxCell id="YPmfC3U80X2HN4cl7KSL-119" value="33" style="text;html=1;strokeColor=none;fillColor=none;align=center;verticalAlign=middle;whiteSpace=wrap;rounded=0;" vertex="1" parent="1">
          <mxGeometry x="2730" y="360" width="60" height="30" as="geometry" />
        </mxCell>
        <mxCell id="YPmfC3U80X2HN4cl7KSL-120" value="33" style="text;html=1;strokeColor=none;fillColor=none;align=center;verticalAlign=middle;whiteSpace=wrap;rounded=0;" vertex="1" parent="1">
          <mxGeometry x="2730" y="470" width="60" height="30" as="geometry" />
        </mxCell>
        <mxCell id="YPmfC3U80X2HN4cl7KSL-121" value="29" style="text;html=1;strokeColor=none;fillColor=none;align=center;verticalAlign=middle;whiteSpace=wrap;rounded=0;" vertex="1" parent="1">
          <mxGeometry x="2400" y="470" width="60" height="30" as="geometry" />
        </mxCell>
        <mxCell id="YPmfC3U80X2HN4cl7KSL-122" value="H" style="text;html=1;strokeColor=none;fillColor=none;align=center;verticalAlign=middle;whiteSpace=wrap;rounded=0;" vertex="1" parent="1">
          <mxGeometry x="2500" y="395" width="60" height="30" as="geometry" />
        </mxCell>
        <mxCell id="YPmfC3U80X2HN4cl7KSL-123" value="Dokumentation" style="text;html=1;strokeColor=none;fillColor=none;align=center;verticalAlign=middle;whiteSpace=wrap;rounded=0;" vertex="1" parent="1">
          <mxGeometry x="2635" y="395" width="60" height="30" as="geometry" />
        </mxCell>
        <mxCell id="YPmfC3U80X2HN4cl7KSL-124" value="4" style="text;html=1;strokeColor=none;fillColor=none;align=center;verticalAlign=middle;whiteSpace=wrap;rounded=0;" vertex="1" parent="1">
          <mxGeometry x="2475" y="435" width="60" height="30" as="geometry" />
        </mxCell>
        <mxCell id="YPmfC3U80X2HN4cl7KSL-125" value="0" style="text;html=1;strokeColor=none;fillColor=none;align=center;verticalAlign=middle;whiteSpace=wrap;rounded=0;" vertex="1" parent="1">
          <mxGeometry x="2565" y="435" width="60" height="30" as="geometry" />
        </mxCell>
        <mxCell id="YPmfC3U80X2HN4cl7KSL-126" value="-" style="text;html=1;strokeColor=none;fillColor=none;align=center;verticalAlign=middle;whiteSpace=wrap;rounded=0;" vertex="1" parent="1">
          <mxGeometry x="2655" y="435" width="60" height="30" as="geometry" />
        </mxCell>
        <mxCell id="YPmfC3U80X2HN4cl7KSL-127" value="" style="endArrow=classic;html=1;rounded=0;exitX=1;exitY=1;exitDx=0;exitDy=0;entryX=0;entryY=1;entryDx=0;entryDy=0;" edge="1" parent="1" source="YPmfC3U80X2HN4cl7KSL-16" target="YPmfC3U80X2HN4cl7KSL-29">
          <mxGeometry width="50" height="50" relative="1" as="geometry">
            <mxPoint x="420" y="400" as="sourcePoint" />
            <mxPoint x="470" y="350" as="targetPoint" />
          </mxGeometry>
        </mxCell>
        <mxCell id="YPmfC3U80X2HN4cl7KSL-128" value="" style="endArrow=classic;html=1;rounded=0;exitX=1;exitY=0;exitDx=0;exitDy=0;entryX=0;entryY=0;entryDx=0;entryDy=0;" edge="1" parent="1" source="YPmfC3U80X2HN4cl7KSL-19" target="YPmfC3U80X2HN4cl7KSL-45">
          <mxGeometry width="50" height="50" relative="1" as="geometry">
            <mxPoint x="430" y="460" as="sourcePoint" />
            <mxPoint x="530" y="510" as="targetPoint" />
          </mxGeometry>
        </mxCell>
        <mxCell id="YPmfC3U80X2HN4cl7KSL-129" value="" style="endArrow=classic;html=1;rounded=0;exitX=1;exitY=0;exitDx=0;exitDy=0;entryX=0;entryY=0;entryDx=0;entryDy=0;" edge="1" parent="1" source="YPmfC3U80X2HN4cl7KSL-47" target="YPmfC3U80X2HN4cl7KSL-73">
          <mxGeometry width="50" height="50" relative="1" as="geometry">
            <mxPoint x="880" y="490" as="sourcePoint" />
            <mxPoint x="930" y="440" as="targetPoint" />
          </mxGeometry>
        </mxCell>
        <mxCell id="YPmfC3U80X2HN4cl7KSL-130" value="" style="endArrow=classic;html=1;rounded=0;exitX=1;exitY=0;exitDx=0;exitDy=0;entryX=0;entryY=0;entryDx=0;entryDy=0;" edge="1" parent="1" source="YPmfC3U80X2HN4cl7KSL-33" target="YPmfC3U80X2HN4cl7KSL-59">
          <mxGeometry width="50" height="50" relative="1" as="geometry">
            <mxPoint x="920" y="280" as="sourcePoint" />
            <mxPoint x="970" y="230" as="targetPoint" />
          </mxGeometry>
        </mxCell>
        <mxCell id="YPmfC3U80X2HN4cl7KSL-131" value="" style="endArrow=classic;html=1;rounded=0;exitX=1;exitY=0;exitDx=0;exitDy=0;entryX=0;entryY=1;entryDx=0;entryDy=0;" edge="1" parent="1" source="YPmfC3U80X2HN4cl7KSL-61" target="YPmfC3U80X2HN4cl7KSL-71">
          <mxGeometry width="50" height="50" relative="1" as="geometry">
            <mxPoint x="1520" y="320" as="sourcePoint" />
            <mxPoint x="1570" y="270" as="targetPoint" />
          </mxGeometry>
        </mxCell>
        <mxCell id="YPmfC3U80X2HN4cl7KSL-132" value="" style="endArrow=classic;html=1;rounded=0;exitX=1;exitY=0;exitDx=0;exitDy=0;entryX=0;entryY=0;entryDx=0;entryDy=0;" edge="1" parent="1" source="YPmfC3U80X2HN4cl7KSL-75" target="YPmfC3U80X2HN4cl7KSL-87">
          <mxGeometry width="50" height="50" relative="1" as="geometry">
            <mxPoint x="1880" y="450" as="sourcePoint" />
            <mxPoint x="1930" y="400" as="targetPoint" />
          </mxGeometry>
        </mxCell>
        <mxCell id="YPmfC3U80X2HN4cl7KSL-133" value="" style="endArrow=classic;html=1;rounded=0;exitX=1;exitY=0;exitDx=0;exitDy=0;entryX=0;entryY=1;entryDx=0;entryDy=0;" edge="1" parent="1" source="YPmfC3U80X2HN4cl7KSL-75" target="YPmfC3U80X2HN4cl7KSL-99">
          <mxGeometry width="50" height="50" relative="1" as="geometry">
            <mxPoint x="1870" y="530" as="sourcePoint" />
            <mxPoint x="1920" y="480" as="targetPoint" />
          </mxGeometry>
        </mxCell>
        <mxCell id="YPmfC3U80X2HN4cl7KSL-134" value="" style="endArrow=classic;html=1;rounded=0;exitX=1;exitY=0;exitDx=0;exitDy=0;entryX=0;entryY=0;entryDx=0;entryDy=0;" edge="1" parent="1" source="YPmfC3U80X2HN4cl7KSL-103" target="YPmfC3U80X2HN4cl7KSL-115">
          <mxGeometry width="50" height="50" relative="1" as="geometry">
            <mxPoint x="2330" y="500" as="sourcePoint" />
            <mxPoint x="2380" y="450" as="targetPoint" />
          </mxGeometry>
        </mxCell>
        <mxCell id="YPmfC3U80X2HN4cl7KSL-135" value="" style="endArrow=classic;html=1;rounded=0;exitX=1;exitY=0;exitDx=0;exitDy=0;entryX=0;entryY=0;entryDx=0;entryDy=0;" edge="1" parent="1" source="YPmfC3U80X2HN4cl7KSL-89" target="YPmfC3U80X2HN4cl7KSL-115">
          <mxGeometry width="50" height="50" relative="1" as="geometry">
            <mxPoint x="2310" y="280" as="sourcePoint" />
            <mxPoint x="2360" y="230" as="targetPoint" />
          </mxGeometry>
        </mxCell>
      </root>
    </mxGraphModel>
  </diagram>
  <diagram id="ojFF_3zm4MGySBZTGLXU" name="PrÃ¼fungsaufgabe2">
    <mxGraphModel dx="3088" dy="746" grid="1" gridSize="10" guides="1" tooltips="1" connect="1" arrows="1" fold="1" page="1" pageScale="1" pageWidth="827" pageHeight="1169" math="0" shadow="0">
      <root>
        <mxCell id="0" />
        <mxCell id="1" parent="0" />
        <mxCell id="-tMDwIPw_-50pKegS80d-1" value="" style="rounded=0;whiteSpace=wrap;html=1;" vertex="1" parent="1">
          <mxGeometry x="-1540" y="230" width="140" height="40" as="geometry" />
        </mxCell>
        <mxCell id="-tMDwIPw_-50pKegS80d-2" value="" style="rounded=0;whiteSpace=wrap;html=1;" vertex="1" parent="1">
          <mxGeometry x="-1400" y="230" width="130" height="40" as="geometry" />
        </mxCell>
        <mxCell id="-tMDwIPw_-50pKegS80d-3" value="" style="rounded=0;whiteSpace=wrap;html=1;" vertex="1" parent="1">
          <mxGeometry x="-1540" y="270" width="90" height="40" as="geometry" />
        </mxCell>
        <mxCell id="-tMDwIPw_-50pKegS80d-4" value="" style="rounded=0;whiteSpace=wrap;html=1;" vertex="1" parent="1">
          <mxGeometry x="-1450" y="270" width="90" height="40" as="geometry" />
        </mxCell>
        <mxCell id="-tMDwIPw_-50pKegS80d-5" value="" style="rounded=0;whiteSpace=wrap;html=1;" vertex="1" parent="1">
          <mxGeometry x="-1360" y="270" width="90" height="40" as="geometry" />
        </mxCell>
        <mxCell id="-tMDwIPw_-50pKegS80d-6" value="FAZ" style="text;html=1;strokeColor=none;fillColor=none;align=center;verticalAlign=middle;whiteSpace=wrap;rounded=0;" vertex="1" parent="1">
          <mxGeometry x="-1600" y="200" width="60" height="30" as="geometry" />
        </mxCell>
        <mxCell id="-tMDwIPw_-50pKegS80d-7" value="FEZ" style="text;html=1;strokeColor=none;fillColor=none;align=center;verticalAlign=middle;whiteSpace=wrap;rounded=0;" vertex="1" parent="1">
          <mxGeometry x="-1270" y="200" width="60" height="30" as="geometry" />
        </mxCell>
        <mxCell id="-tMDwIPw_-50pKegS80d-8" value="SEZ" style="text;html=1;strokeColor=none;fillColor=none;align=center;verticalAlign=middle;whiteSpace=wrap;rounded=0;" vertex="1" parent="1">
          <mxGeometry x="-1270" y="310" width="60" height="30" as="geometry" />
        </mxCell>
        <mxCell id="-tMDwIPw_-50pKegS80d-9" value="SAZ" style="text;html=1;strokeColor=none;fillColor=none;align=center;verticalAlign=middle;whiteSpace=wrap;rounded=0;" vertex="1" parent="1">
          <mxGeometry x="-1600" y="310" width="60" height="30" as="geometry" />
        </mxCell>
        <mxCell id="-tMDwIPw_-50pKegS80d-10" value="Vorgang" style="text;html=1;strokeColor=none;fillColor=none;align=center;verticalAlign=middle;whiteSpace=wrap;rounded=0;" vertex="1" parent="1">
          <mxGeometry x="-1500" y="235" width="60" height="30" as="geometry" />
        </mxCell>
        <mxCell id="-tMDwIPw_-50pKegS80d-11" value="Beschreibung" style="text;html=1;strokeColor=none;fillColor=none;align=center;verticalAlign=middle;whiteSpace=wrap;rounded=0;" vertex="1" parent="1">
          <mxGeometry x="-1365" y="235" width="60" height="30" as="geometry" />
        </mxCell>
        <mxCell id="-tMDwIPw_-50pKegS80d-12" value="Dauer" style="text;html=1;strokeColor=none;fillColor=none;align=center;verticalAlign=middle;whiteSpace=wrap;rounded=0;" vertex="1" parent="1">
          <mxGeometry x="-1525" y="275" width="60" height="30" as="geometry" />
        </mxCell>
        <mxCell id="-tMDwIPw_-50pKegS80d-13" value="GP" style="text;html=1;strokeColor=none;fillColor=none;align=center;verticalAlign=middle;whiteSpace=wrap;rounded=0;" vertex="1" parent="1">
          <mxGeometry x="-1435" y="275" width="60" height="30" as="geometry" />
        </mxCell>
        <mxCell id="-tMDwIPw_-50pKegS80d-14" value="FP" style="text;html=1;strokeColor=none;fillColor=none;align=center;verticalAlign=middle;whiteSpace=wrap;rounded=0;" vertex="1" parent="1">
          <mxGeometry x="-1345" y="275" width="60" height="30" as="geometry" />
        </mxCell>
        <mxCell id="-tMDwIPw_-50pKegS80d-15" value="" style="rounded=0;whiteSpace=wrap;html=1;" vertex="1" parent="1">
          <mxGeometry x="-1540" y="560" width="140" height="40" as="geometry" />
        </mxCell>
        <mxCell id="-tMDwIPw_-50pKegS80d-16" value="" style="rounded=0;whiteSpace=wrap;html=1;" vertex="1" parent="1">
          <mxGeometry x="-1400" y="560" width="130" height="40" as="geometry" />
        </mxCell>
        <mxCell id="-tMDwIPw_-50pKegS80d-17" value="" style="rounded=0;whiteSpace=wrap;html=1;" vertex="1" parent="1">
          <mxGeometry x="-1540" y="600" width="90" height="40" as="geometry" />
        </mxCell>
        <mxCell id="-tMDwIPw_-50pKegS80d-18" value="" style="rounded=0;whiteSpace=wrap;html=1;" vertex="1" parent="1">
          <mxGeometry x="-1450" y="600" width="90" height="40" as="geometry" />
        </mxCell>
        <mxCell id="-tMDwIPw_-50pKegS80d-19" value="" style="rounded=0;whiteSpace=wrap;html=1;" vertex="1" parent="1">
          <mxGeometry x="-1360" y="600" width="90" height="40" as="geometry" />
        </mxCell>
        <mxCell id="-tMDwIPw_-50pKegS80d-20" value="0" style="text;html=1;strokeColor=none;fillColor=none;align=center;verticalAlign=middle;whiteSpace=wrap;rounded=0;" vertex="1" parent="1">
          <mxGeometry x="-1600" y="530" width="60" height="30" as="geometry" />
        </mxCell>
        <mxCell id="-tMDwIPw_-50pKegS80d-21" value="1" style="text;html=1;strokeColor=none;fillColor=none;align=center;verticalAlign=middle;whiteSpace=wrap;rounded=0;" vertex="1" parent="1">
          <mxGeometry x="-1270" y="530" width="60" height="30" as="geometry" />
        </mxCell>
        <mxCell id="-tMDwIPw_-50pKegS80d-22" value="1" style="text;html=1;strokeColor=none;fillColor=none;align=center;verticalAlign=middle;whiteSpace=wrap;rounded=0;" vertex="1" parent="1">
          <mxGeometry x="-1270" y="640" width="60" height="30" as="geometry" />
        </mxCell>
        <mxCell id="-tMDwIPw_-50pKegS80d-23" value="0" style="text;html=1;strokeColor=none;fillColor=none;align=center;verticalAlign=middle;whiteSpace=wrap;rounded=0;" vertex="1" parent="1">
          <mxGeometry x="-1600" y="640" width="60" height="30" as="geometry" />
        </mxCell>
        <mxCell id="-tMDwIPw_-50pKegS80d-24" value="1" style="text;html=1;strokeColor=none;fillColor=none;align=center;verticalAlign=middle;whiteSpace=wrap;rounded=0;" vertex="1" parent="1">
          <mxGeometry x="-1500" y="565" width="60" height="30" as="geometry" />
        </mxCell>
        <mxCell id="-tMDwIPw_-50pKegS80d-25" value="Konzeption der Hardware" style="text;html=1;strokeColor=none;fillColor=none;align=center;verticalAlign=middle;whiteSpace=wrap;rounded=0;" vertex="1" parent="1">
          <mxGeometry x="-1400" y="565" width="130" height="30" as="geometry" />
        </mxCell>
        <mxCell id="-tMDwIPw_-50pKegS80d-26" value="1" style="text;html=1;strokeColor=none;fillColor=none;align=center;verticalAlign=middle;whiteSpace=wrap;rounded=0;" vertex="1" parent="1">
          <mxGeometry x="-1525" y="605" width="60" height="30" as="geometry" />
        </mxCell>
        <mxCell id="-tMDwIPw_-50pKegS80d-27" value="0" style="text;html=1;strokeColor=none;fillColor=none;align=center;verticalAlign=middle;whiteSpace=wrap;rounded=0;" vertex="1" parent="1">
          <mxGeometry x="-1435" y="605" width="60" height="30" as="geometry" />
        </mxCell>
        <mxCell id="-tMDwIPw_-50pKegS80d-28" value="0" style="text;html=1;strokeColor=none;fillColor=none;align=center;verticalAlign=middle;whiteSpace=wrap;rounded=0;" vertex="1" parent="1">
          <mxGeometry x="-1345" y="605" width="60" height="30" as="geometry" />
        </mxCell>
        <mxCell id="-tMDwIPw_-50pKegS80d-29" value="" style="rounded=0;whiteSpace=wrap;html=1;" vertex="1" parent="1">
          <mxGeometry x="-1100" y="440" width="140" height="40" as="geometry" />
        </mxCell>
        <mxCell id="-tMDwIPw_-50pKegS80d-30" value="" style="rounded=0;whiteSpace=wrap;html=1;" vertex="1" parent="1">
          <mxGeometry x="-960" y="440" width="130" height="40" as="geometry" />
        </mxCell>
        <mxCell id="-tMDwIPw_-50pKegS80d-31" value="" style="rounded=0;whiteSpace=wrap;html=1;" vertex="1" parent="1">
          <mxGeometry x="-1100" y="480" width="90" height="40" as="geometry" />
        </mxCell>
        <mxCell id="-tMDwIPw_-50pKegS80d-32" value="" style="rounded=0;whiteSpace=wrap;html=1;" vertex="1" parent="1">
          <mxGeometry x="-1010" y="480" width="90" height="40" as="geometry" />
        </mxCell>
        <mxCell id="-tMDwIPw_-50pKegS80d-33" value="" style="rounded=0;whiteSpace=wrap;html=1;" vertex="1" parent="1">
          <mxGeometry x="-920" y="480" width="90" height="40" as="geometry" />
        </mxCell>
        <mxCell id="-tMDwIPw_-50pKegS80d-34" value="1" style="text;html=1;strokeColor=none;fillColor=none;align=center;verticalAlign=middle;whiteSpace=wrap;rounded=0;" vertex="1" parent="1">
          <mxGeometry x="-1160" y="410" width="60" height="30" as="geometry" />
        </mxCell>
        <mxCell id="-tMDwIPw_-50pKegS80d-35" value="6" style="text;html=1;strokeColor=none;fillColor=none;align=center;verticalAlign=middle;whiteSpace=wrap;rounded=0;" vertex="1" parent="1">
          <mxGeometry x="-830" y="410" width="60" height="30" as="geometry" />
        </mxCell>
        <mxCell id="-tMDwIPw_-50pKegS80d-36" value="6" style="text;html=1;strokeColor=none;fillColor=none;align=center;verticalAlign=middle;whiteSpace=wrap;rounded=0;" vertex="1" parent="1">
          <mxGeometry x="-830" y="520" width="60" height="30" as="geometry" />
        </mxCell>
        <mxCell id="-tMDwIPw_-50pKegS80d-37" value="1" style="text;html=1;strokeColor=none;fillColor=none;align=center;verticalAlign=middle;whiteSpace=wrap;rounded=0;" vertex="1" parent="1">
          <mxGeometry x="-1160" y="520" width="60" height="30" as="geometry" />
        </mxCell>
        <mxCell id="-tMDwIPw_-50pKegS80d-38" value="2" style="text;html=1;strokeColor=none;fillColor=none;align=center;verticalAlign=middle;whiteSpace=wrap;rounded=0;" vertex="1" parent="1">
          <mxGeometry x="-1060" y="445" width="60" height="30" as="geometry" />
        </mxCell>
        <mxCell id="-tMDwIPw_-50pKegS80d-39" value="Verlegung Leitungen" style="text;html=1;strokeColor=none;fillColor=none;align=center;verticalAlign=middle;whiteSpace=wrap;rounded=0;" vertex="1" parent="1">
          <mxGeometry x="-960" y="445" width="130" height="30" as="geometry" />
        </mxCell>
        <mxCell id="-tMDwIPw_-50pKegS80d-40" value="5" style="text;html=1;strokeColor=none;fillColor=none;align=center;verticalAlign=middle;whiteSpace=wrap;rounded=0;" vertex="1" parent="1">
          <mxGeometry x="-1085" y="485" width="60" height="30" as="geometry" />
        </mxCell>
        <mxCell id="-tMDwIPw_-50pKegS80d-41" value="0" style="text;html=1;strokeColor=none;fillColor=none;align=center;verticalAlign=middle;whiteSpace=wrap;rounded=0;" vertex="1" parent="1">
          <mxGeometry x="-995" y="485" width="60" height="30" as="geometry" />
        </mxCell>
        <mxCell id="-tMDwIPw_-50pKegS80d-42" value="0" style="text;html=1;strokeColor=none;fillColor=none;align=center;verticalAlign=middle;whiteSpace=wrap;rounded=0;" vertex="1" parent="1">
          <mxGeometry x="-905" y="485" width="60" height="30" as="geometry" />
        </mxCell>
        <mxCell id="-tMDwIPw_-50pKegS80d-43" value="" style="rounded=0;whiteSpace=wrap;html=1;" vertex="1" parent="1">
          <mxGeometry x="-1100" y="700" width="140" height="40" as="geometry" />
        </mxCell>
        <mxCell id="-tMDwIPw_-50pKegS80d-44" value="" style="rounded=0;whiteSpace=wrap;html=1;" vertex="1" parent="1">
          <mxGeometry x="-960" y="700" width="130" height="40" as="geometry" />
        </mxCell>
        <mxCell id="-tMDwIPw_-50pKegS80d-45" value="" style="rounded=0;whiteSpace=wrap;html=1;" vertex="1" parent="1">
          <mxGeometry x="-1100" y="740" width="90" height="40" as="geometry" />
        </mxCell>
        <mxCell id="-tMDwIPw_-50pKegS80d-46" value="" style="rounded=0;whiteSpace=wrap;html=1;" vertex="1" parent="1">
          <mxGeometry x="-1010" y="740" width="90" height="40" as="geometry" />
        </mxCell>
        <mxCell id="-tMDwIPw_-50pKegS80d-47" value="" style="rounded=0;whiteSpace=wrap;html=1;" vertex="1" parent="1">
          <mxGeometry x="-920" y="740" width="90" height="40" as="geometry" />
        </mxCell>
        <mxCell id="-tMDwIPw_-50pKegS80d-48" value="1" style="text;html=1;strokeColor=none;fillColor=none;align=center;verticalAlign=middle;whiteSpace=wrap;rounded=0;" vertex="1" parent="1">
          <mxGeometry x="-1160" y="670" width="60" height="30" as="geometry" />
        </mxCell>
        <mxCell id="-tMDwIPw_-50pKegS80d-49" value="3" style="text;html=1;strokeColor=none;fillColor=none;align=center;verticalAlign=middle;whiteSpace=wrap;rounded=0;" vertex="1" parent="1">
          <mxGeometry x="-830" y="670" width="60" height="30" as="geometry" />
        </mxCell>
        <mxCell id="-tMDwIPw_-50pKegS80d-50" value="6" style="text;html=1;strokeColor=none;fillColor=none;align=center;verticalAlign=middle;whiteSpace=wrap;rounded=0;" vertex="1" parent="1">
          <mxGeometry x="-830" y="780" width="60" height="30" as="geometry" />
        </mxCell>
        <mxCell id="-tMDwIPw_-50pKegS80d-51" value="4" style="text;html=1;strokeColor=none;fillColor=none;align=center;verticalAlign=middle;whiteSpace=wrap;rounded=0;" vertex="1" parent="1">
          <mxGeometry x="-1160" y="780" width="60" height="30" as="geometry" />
        </mxCell>
        <mxCell id="-tMDwIPw_-50pKegS80d-52" value="4" style="text;html=1;strokeColor=none;fillColor=none;align=center;verticalAlign=middle;whiteSpace=wrap;rounded=0;" vertex="1" parent="1">
          <mxGeometry x="-1060" y="705" width="60" height="30" as="geometry" />
        </mxCell>
        <mxCell id="-tMDwIPw_-50pKegS80d-53" value="Aufbau Netzschrank" style="text;html=1;strokeColor=none;fillColor=none;align=center;verticalAlign=middle;whiteSpace=wrap;rounded=0;" vertex="1" parent="1">
          <mxGeometry x="-960" y="705" width="130" height="30" as="geometry" />
        </mxCell>
        <mxCell id="-tMDwIPw_-50pKegS80d-54" value="2" style="text;html=1;strokeColor=none;fillColor=none;align=center;verticalAlign=middle;whiteSpace=wrap;rounded=0;" vertex="1" parent="1">
          <mxGeometry x="-1085" y="745" width="60" height="30" as="geometry" />
        </mxCell>
        <mxCell id="-tMDwIPw_-50pKegS80d-55" value="3" style="text;html=1;strokeColor=none;fillColor=none;align=center;verticalAlign=middle;whiteSpace=wrap;rounded=0;" vertex="1" parent="1">
          <mxGeometry x="-995" y="745" width="60" height="30" as="geometry" />
        </mxCell>
        <mxCell id="-tMDwIPw_-50pKegS80d-56" value="0" style="text;html=1;strokeColor=none;fillColor=none;align=center;verticalAlign=middle;whiteSpace=wrap;rounded=0;" vertex="1" parent="1">
          <mxGeometry x="-905" y="745" width="60" height="30" as="geometry" />
        </mxCell>
        <mxCell id="-tMDwIPw_-50pKegS80d-57" value="" style="rounded=0;whiteSpace=wrap;html=1;" vertex="1" parent="1">
          <mxGeometry x="-680" y="440" width="140" height="40" as="geometry" />
        </mxCell>
        <mxCell id="-tMDwIPw_-50pKegS80d-58" value="" style="rounded=0;whiteSpace=wrap;html=1;" vertex="1" parent="1">
          <mxGeometry x="-540" y="440" width="130" height="40" as="geometry" />
        </mxCell>
        <mxCell id="-tMDwIPw_-50pKegS80d-59" value="" style="rounded=0;whiteSpace=wrap;html=1;" vertex="1" parent="1">
          <mxGeometry x="-680" y="480" width="90" height="40" as="geometry" />
        </mxCell>
        <mxCell id="-tMDwIPw_-50pKegS80d-60" value="" style="rounded=0;whiteSpace=wrap;html=1;" vertex="1" parent="1">
          <mxGeometry x="-590" y="480" width="90" height="40" as="geometry" />
        </mxCell>
        <mxCell id="-tMDwIPw_-50pKegS80d-61" value="" style="rounded=0;whiteSpace=wrap;html=1;" vertex="1" parent="1">
          <mxGeometry x="-500" y="480" width="90" height="40" as="geometry" />
        </mxCell>
        <mxCell id="-tMDwIPw_-50pKegS80d-62" value="6" style="text;html=1;strokeColor=none;fillColor=none;align=center;verticalAlign=middle;whiteSpace=wrap;rounded=0;" vertex="1" parent="1">
          <mxGeometry x="-740" y="410" width="60" height="30" as="geometry" />
        </mxCell>
        <mxCell id="-tMDwIPw_-50pKegS80d-63" value="7" style="text;html=1;strokeColor=none;fillColor=none;align=center;verticalAlign=middle;whiteSpace=wrap;rounded=0;" vertex="1" parent="1">
          <mxGeometry x="-410" y="410" width="60" height="30" as="geometry" />
        </mxCell>
        <mxCell id="-tMDwIPw_-50pKegS80d-64" value="7" style="text;html=1;strokeColor=none;fillColor=none;align=center;verticalAlign=middle;whiteSpace=wrap;rounded=0;" vertex="1" parent="1">
          <mxGeometry x="-410" y="520" width="60" height="30" as="geometry" />
        </mxCell>
        <mxCell id="-tMDwIPw_-50pKegS80d-65" value="6" style="text;html=1;strokeColor=none;fillColor=none;align=center;verticalAlign=middle;whiteSpace=wrap;rounded=0;" vertex="1" parent="1">
          <mxGeometry x="-740" y="520" width="60" height="30" as="geometry" />
        </mxCell>
        <mxCell id="-tMDwIPw_-50pKegS80d-66" value="3" style="text;html=1;strokeColor=none;fillColor=none;align=center;verticalAlign=middle;whiteSpace=wrap;rounded=0;" vertex="1" parent="1">
          <mxGeometry x="-640" y="445" width="60" height="30" as="geometry" />
        </mxCell>
        <mxCell id="-tMDwIPw_-50pKegS80d-67" value="Verlegung Leitungen" style="text;html=1;strokeColor=none;fillColor=none;align=center;verticalAlign=middle;whiteSpace=wrap;rounded=0;" vertex="1" parent="1">
          <mxGeometry x="-540" y="445" width="130" height="30" as="geometry" />
        </mxCell>
        <mxCell id="-tMDwIPw_-50pKegS80d-68" value="1" style="text;html=1;strokeColor=none;fillColor=none;align=center;verticalAlign=middle;whiteSpace=wrap;rounded=0;" vertex="1" parent="1">
          <mxGeometry x="-665" y="485" width="60" height="30" as="geometry" />
        </mxCell>
        <mxCell id="-tMDwIPw_-50pKegS80d-69" value="0" style="text;html=1;strokeColor=none;fillColor=none;align=center;verticalAlign=middle;whiteSpace=wrap;rounded=0;" vertex="1" parent="1">
          <mxGeometry x="-575" y="485" width="60" height="30" as="geometry" />
        </mxCell>
        <mxCell id="-tMDwIPw_-50pKegS80d-70" value="0" style="text;html=1;strokeColor=none;fillColor=none;align=center;verticalAlign=middle;whiteSpace=wrap;rounded=0;" vertex="1" parent="1">
          <mxGeometry x="-485" y="485" width="60" height="30" as="geometry" />
        </mxCell>
        <mxCell id="-tMDwIPw_-50pKegS80d-71" value="" style="rounded=0;whiteSpace=wrap;html=1;" vertex="1" parent="1">
          <mxGeometry x="-660" y="700" width="140" height="40" as="geometry" />
        </mxCell>
        <mxCell id="-tMDwIPw_-50pKegS80d-72" value="" style="rounded=0;whiteSpace=wrap;html=1;" vertex="1" parent="1">
          <mxGeometry x="-520" y="700" width="130" height="40" as="geometry" />
        </mxCell>
        <mxCell id="-tMDwIPw_-50pKegS80d-73" value="" style="rounded=0;whiteSpace=wrap;html=1;" vertex="1" parent="1">
          <mxGeometry x="-660" y="740" width="90" height="40" as="geometry" />
        </mxCell>
        <mxCell id="-tMDwIPw_-50pKegS80d-74" value="" style="rounded=0;whiteSpace=wrap;html=1;" vertex="1" parent="1">
          <mxGeometry x="-570" y="740" width="90" height="40" as="geometry" />
        </mxCell>
        <mxCell id="-tMDwIPw_-50pKegS80d-75" value="" style="rounded=0;whiteSpace=wrap;html=1;" vertex="1" parent="1">
          <mxGeometry x="-480" y="740" width="90" height="40" as="geometry" />
        </mxCell>
        <mxCell id="-tMDwIPw_-50pKegS80d-76" value="3" style="text;html=1;strokeColor=none;fillColor=none;align=center;verticalAlign=middle;whiteSpace=wrap;rounded=0;" vertex="1" parent="1">
          <mxGeometry x="-720" y="670" width="60" height="30" as="geometry" />
        </mxCell>
        <mxCell id="-tMDwIPw_-50pKegS80d-77" value="4" style="text;html=1;strokeColor=none;fillColor=none;align=center;verticalAlign=middle;whiteSpace=wrap;rounded=0;" vertex="1" parent="1">
          <mxGeometry x="-390" y="670" width="60" height="30" as="geometry" />
        </mxCell>
        <mxCell id="-tMDwIPw_-50pKegS80d-78" value="7" style="text;html=1;strokeColor=none;fillColor=none;align=center;verticalAlign=middle;whiteSpace=wrap;rounded=0;" vertex="1" parent="1">
          <mxGeometry x="-390" y="780" width="60" height="30" as="geometry" />
        </mxCell>
        <mxCell id="-tMDwIPw_-50pKegS80d-79" value="6" style="text;html=1;strokeColor=none;fillColor=none;align=center;verticalAlign=middle;whiteSpace=wrap;rounded=0;" vertex="1" parent="1">
          <mxGeometry x="-720" y="780" width="60" height="30" as="geometry" />
        </mxCell>
        <mxCell id="-tMDwIPw_-50pKegS80d-80" value="5" style="text;html=1;strokeColor=none;fillColor=none;align=center;verticalAlign=middle;whiteSpace=wrap;rounded=0;" vertex="1" parent="1">
          <mxGeometry x="-620" y="705" width="60" height="30" as="geometry" />
        </mxCell>
        <mxCell id="-tMDwIPw_-50pKegS80d-81" value="Verlegung Leitungen" style="text;html=1;strokeColor=none;fillColor=none;align=center;verticalAlign=middle;whiteSpace=wrap;rounded=0;" vertex="1" parent="1">
          <mxGeometry x="-520" y="705" width="130" height="30" as="geometry" />
        </mxCell>
        <mxCell id="-tMDwIPw_-50pKegS80d-82" value="1" style="text;html=1;strokeColor=none;fillColor=none;align=center;verticalAlign=middle;whiteSpace=wrap;rounded=0;" vertex="1" parent="1">
          <mxGeometry x="-645" y="745" width="60" height="30" as="geometry" />
        </mxCell>
        <mxCell id="-tMDwIPw_-50pKegS80d-83" value="3" style="text;html=1;strokeColor=none;fillColor=none;align=center;verticalAlign=middle;whiteSpace=wrap;rounded=0;" vertex="1" parent="1">
          <mxGeometry x="-555" y="745" width="60" height="30" as="geometry" />
        </mxCell>
        <mxCell id="-tMDwIPw_-50pKegS80d-84" value="3" style="text;html=1;strokeColor=none;fillColor=none;align=center;verticalAlign=middle;whiteSpace=wrap;rounded=0;" vertex="1" parent="1">
          <mxGeometry x="-465" y="745" width="60" height="30" as="geometry" />
        </mxCell>
        <mxCell id="-tMDwIPw_-50pKegS80d-85" value="" style="rounded=0;whiteSpace=wrap;html=1;" vertex="1" parent="1">
          <mxGeometry x="-190" y="560" width="140" height="40" as="geometry" />
        </mxCell>
        <mxCell id="-tMDwIPw_-50pKegS80d-86" value="" style="rounded=0;whiteSpace=wrap;html=1;" vertex="1" parent="1">
          <mxGeometry x="-50" y="560" width="130" height="40" as="geometry" />
        </mxCell>
        <mxCell id="-tMDwIPw_-50pKegS80d-87" value="" style="rounded=0;whiteSpace=wrap;html=1;" vertex="1" parent="1">
          <mxGeometry x="-190" y="600" width="90" height="40" as="geometry" />
        </mxCell>
        <mxCell id="-tMDwIPw_-50pKegS80d-88" value="" style="rounded=0;whiteSpace=wrap;html=1;" vertex="1" parent="1">
          <mxGeometry x="-100" y="600" width="90" height="40" as="geometry" />
        </mxCell>
        <mxCell id="-tMDwIPw_-50pKegS80d-89" value="" style="rounded=0;whiteSpace=wrap;html=1;" vertex="1" parent="1">
          <mxGeometry x="-10" y="600" width="90" height="40" as="geometry" />
        </mxCell>
        <mxCell id="-tMDwIPw_-50pKegS80d-90" value="7" style="text;html=1;strokeColor=none;fillColor=none;align=center;verticalAlign=middle;whiteSpace=wrap;rounded=0;" vertex="1" parent="1">
          <mxGeometry x="-250" y="530" width="60" height="30" as="geometry" />
        </mxCell>
        <mxCell id="-tMDwIPw_-50pKegS80d-91" value="8" style="text;html=1;strokeColor=none;fillColor=none;align=center;verticalAlign=middle;whiteSpace=wrap;rounded=0;" vertex="1" parent="1">
          <mxGeometry x="80" y="530" width="60" height="30" as="geometry" />
        </mxCell>
        <mxCell id="-tMDwIPw_-50pKegS80d-92" value="8" style="text;html=1;strokeColor=none;fillColor=none;align=center;verticalAlign=middle;whiteSpace=wrap;rounded=0;" vertex="1" parent="1">
          <mxGeometry x="80" y="640" width="60" height="30" as="geometry" />
        </mxCell>
        <mxCell id="-tMDwIPw_-50pKegS80d-93" value="7" style="text;html=1;strokeColor=none;fillColor=none;align=center;verticalAlign=middle;whiteSpace=wrap;rounded=0;" vertex="1" parent="1">
          <mxGeometry x="-250" y="640" width="60" height="30" as="geometry" />
        </mxCell>
        <mxCell id="-tMDwIPw_-50pKegS80d-94" value="6" style="text;html=1;strokeColor=none;fillColor=none;align=center;verticalAlign=middle;whiteSpace=wrap;rounded=0;" vertex="1" parent="1">
          <mxGeometry x="-150" y="565" width="60" height="30" as="geometry" />
        </mxCell>
        <mxCell id="-tMDwIPw_-50pKegS80d-95" value="Messung Verkabelung" style="text;html=1;strokeColor=none;fillColor=none;align=center;verticalAlign=middle;whiteSpace=wrap;rounded=0;" vertex="1" parent="1">
          <mxGeometry x="-50" y="565" width="130" height="30" as="geometry" />
        </mxCell>
        <mxCell id="-tMDwIPw_-50pKegS80d-96" value="1" style="text;html=1;strokeColor=none;fillColor=none;align=center;verticalAlign=middle;whiteSpace=wrap;rounded=0;" vertex="1" parent="1">
          <mxGeometry x="-175" y="605" width="60" height="30" as="geometry" />
        </mxCell>
        <mxCell id="-tMDwIPw_-50pKegS80d-97" value="0" style="text;html=1;strokeColor=none;fillColor=none;align=center;verticalAlign=middle;whiteSpace=wrap;rounded=0;" vertex="1" parent="1">
          <mxGeometry x="-85" y="605" width="60" height="30" as="geometry" />
        </mxCell>
        <mxCell id="-tMDwIPw_-50pKegS80d-98" value="0" style="text;html=1;strokeColor=none;fillColor=none;align=center;verticalAlign=middle;whiteSpace=wrap;rounded=0;" vertex="1" parent="1">
          <mxGeometry x="5" y="605" width="60" height="30" as="geometry" />
        </mxCell>
        <mxCell id="-tMDwIPw_-50pKegS80d-99" value="" style="rounded=0;whiteSpace=wrap;html=1;" vertex="1" parent="1">
          <mxGeometry x="240" y="560" width="140" height="40" as="geometry" />
        </mxCell>
        <mxCell id="-tMDwIPw_-50pKegS80d-100" value="" style="rounded=0;whiteSpace=wrap;html=1;" vertex="1" parent="1">
          <mxGeometry x="380" y="560" width="130" height="40" as="geometry" />
        </mxCell>
        <mxCell id="-tMDwIPw_-50pKegS80d-101" value="" style="rounded=0;whiteSpace=wrap;html=1;" vertex="1" parent="1">
          <mxGeometry x="240" y="600" width="90" height="40" as="geometry" />
        </mxCell>
        <mxCell id="-tMDwIPw_-50pKegS80d-102" value="" style="rounded=0;whiteSpace=wrap;html=1;" vertex="1" parent="1">
          <mxGeometry x="330" y="600" width="90" height="40" as="geometry" />
        </mxCell>
        <mxCell id="-tMDwIPw_-50pKegS80d-103" value="" style="rounded=0;whiteSpace=wrap;html=1;" vertex="1" parent="1">
          <mxGeometry x="420" y="600" width="90" height="40" as="geometry" />
        </mxCell>
        <mxCell id="-tMDwIPw_-50pKegS80d-104" value="8" style="text;html=1;strokeColor=none;fillColor=none;align=center;verticalAlign=middle;whiteSpace=wrap;rounded=0;" vertex="1" parent="1">
          <mxGeometry x="180" y="530" width="60" height="30" as="geometry" />
        </mxCell>
        <mxCell id="-tMDwIPw_-50pKegS80d-105" value="10" style="text;html=1;strokeColor=none;fillColor=none;align=center;verticalAlign=middle;whiteSpace=wrap;rounded=0;" vertex="1" parent="1">
          <mxGeometry x="510" y="530" width="60" height="30" as="geometry" />
        </mxCell>
        <mxCell id="-tMDwIPw_-50pKegS80d-106" value="10" style="text;html=1;strokeColor=none;fillColor=none;align=center;verticalAlign=middle;whiteSpace=wrap;rounded=0;" vertex="1" parent="1">
          <mxGeometry x="510" y="640" width="60" height="30" as="geometry" />
        </mxCell>
        <mxCell id="-tMDwIPw_-50pKegS80d-107" value="8" style="text;html=1;strokeColor=none;fillColor=none;align=center;verticalAlign=middle;whiteSpace=wrap;rounded=0;" vertex="1" parent="1">
          <mxGeometry x="180" y="640" width="60" height="30" as="geometry" />
        </mxCell>
        <mxCell id="-tMDwIPw_-50pKegS80d-108" value="7" style="text;html=1;strokeColor=none;fillColor=none;align=center;verticalAlign=middle;whiteSpace=wrap;rounded=0;" vertex="1" parent="1">
          <mxGeometry x="280" y="565" width="60" height="30" as="geometry" />
        </mxCell>
        <mxCell id="-tMDwIPw_-50pKegS80d-109" value="Aufbau Infrastruktur" style="text;html=1;strokeColor=none;fillColor=none;align=center;verticalAlign=middle;whiteSpace=wrap;rounded=0;" vertex="1" parent="1">
          <mxGeometry x="380" y="565" width="130" height="30" as="geometry" />
        </mxCell>
        <mxCell id="-tMDwIPw_-50pKegS80d-110" value="2" style="text;html=1;strokeColor=none;fillColor=none;align=center;verticalAlign=middle;whiteSpace=wrap;rounded=0;" vertex="1" parent="1">
          <mxGeometry x="255" y="605" width="60" height="30" as="geometry" />
        </mxCell>
        <mxCell id="-tMDwIPw_-50pKegS80d-111" value="0" style="text;html=1;strokeColor=none;fillColor=none;align=center;verticalAlign=middle;whiteSpace=wrap;rounded=0;" vertex="1" parent="1">
          <mxGeometry x="345" y="605" width="60" height="30" as="geometry" />
        </mxCell>
        <mxCell id="-tMDwIPw_-50pKegS80d-112" value="0" style="text;html=1;strokeColor=none;fillColor=none;align=center;verticalAlign=middle;whiteSpace=wrap;rounded=0;" vertex="1" parent="1">
          <mxGeometry x="435" y="605" width="60" height="30" as="geometry" />
        </mxCell>
        <mxCell id="-tMDwIPw_-50pKegS80d-113" value="" style="rounded=0;whiteSpace=wrap;html=1;" vertex="1" parent="1">
          <mxGeometry x="660" y="560" width="140" height="40" as="geometry" />
        </mxCell>
        <mxCell id="-tMDwIPw_-50pKegS80d-114" value="" style="rounded=0;whiteSpace=wrap;html=1;" vertex="1" parent="1">
          <mxGeometry x="800" y="560" width="130" height="40" as="geometry" />
        </mxCell>
        <mxCell id="-tMDwIPw_-50pKegS80d-115" value="" style="rounded=0;whiteSpace=wrap;html=1;" vertex="1" parent="1">
          <mxGeometry x="660" y="600" width="90" height="40" as="geometry" />
        </mxCell>
        <mxCell id="-tMDwIPw_-50pKegS80d-116" value="" style="rounded=0;whiteSpace=wrap;html=1;" vertex="1" parent="1">
          <mxGeometry x="750" y="600" width="90" height="40" as="geometry" />
        </mxCell>
        <mxCell id="-tMDwIPw_-50pKegS80d-117" value="" style="rounded=0;whiteSpace=wrap;html=1;" vertex="1" parent="1">
          <mxGeometry x="840" y="600" width="90" height="40" as="geometry" />
        </mxCell>
        <mxCell id="-tMDwIPw_-50pKegS80d-118" value="10" style="text;html=1;strokeColor=none;fillColor=none;align=center;verticalAlign=middle;whiteSpace=wrap;rounded=0;" vertex="1" parent="1">
          <mxGeometry x="600" y="530" width="60" height="30" as="geometry" />
        </mxCell>
        <mxCell id="-tMDwIPw_-50pKegS80d-119" value="13" style="text;html=1;strokeColor=none;fillColor=none;align=center;verticalAlign=middle;whiteSpace=wrap;rounded=0;" vertex="1" parent="1">
          <mxGeometry x="930" y="530" width="60" height="30" as="geometry" />
        </mxCell>
        <mxCell id="-tMDwIPw_-50pKegS80d-120" value="13" style="text;html=1;strokeColor=none;fillColor=none;align=center;verticalAlign=middle;whiteSpace=wrap;rounded=0;" vertex="1" parent="1">
          <mxGeometry x="930" y="640" width="60" height="30" as="geometry" />
        </mxCell>
        <mxCell id="-tMDwIPw_-50pKegS80d-121" value="10" style="text;html=1;strokeColor=none;fillColor=none;align=center;verticalAlign=middle;whiteSpace=wrap;rounded=0;" vertex="1" parent="1">
          <mxGeometry x="600" y="640" width="60" height="30" as="geometry" />
        </mxCell>
        <mxCell id="-tMDwIPw_-50pKegS80d-122" value="8" style="text;html=1;strokeColor=none;fillColor=none;align=center;verticalAlign=middle;whiteSpace=wrap;rounded=0;" vertex="1" parent="1">
          <mxGeometry x="700" y="565" width="60" height="30" as="geometry" />
        </mxCell>
        <mxCell id="-tMDwIPw_-50pKegS80d-123" value="Config Netzwerk" style="text;html=1;strokeColor=none;fillColor=none;align=center;verticalAlign=middle;whiteSpace=wrap;rounded=0;" vertex="1" parent="1">
          <mxGeometry x="800" y="565" width="130" height="30" as="geometry" />
        </mxCell>
        <mxCell id="-tMDwIPw_-50pKegS80d-124" value="3" style="text;html=1;strokeColor=none;fillColor=none;align=center;verticalAlign=middle;whiteSpace=wrap;rounded=0;" vertex="1" parent="1">
          <mxGeometry x="675" y="605" width="60" height="30" as="geometry" />
        </mxCell>
        <mxCell id="-tMDwIPw_-50pKegS80d-125" value="0" style="text;html=1;strokeColor=none;fillColor=none;align=center;verticalAlign=middle;whiteSpace=wrap;rounded=0;" vertex="1" parent="1">
          <mxGeometry x="765" y="605" width="60" height="30" as="geometry" />
        </mxCell>
        <mxCell id="-tMDwIPw_-50pKegS80d-126" value="0" style="text;html=1;strokeColor=none;fillColor=none;align=center;verticalAlign=middle;whiteSpace=wrap;rounded=0;" vertex="1" parent="1">
          <mxGeometry x="855" y="605" width="60" height="30" as="geometry" />
        </mxCell>
        <mxCell id="-tMDwIPw_-50pKegS80d-127" value="" style="rounded=0;whiteSpace=wrap;html=1;" vertex="1" parent="1">
          <mxGeometry x="1060" y="420" width="140" height="40" as="geometry" />
        </mxCell>
        <mxCell id="-tMDwIPw_-50pKegS80d-128" value="" style="rounded=0;whiteSpace=wrap;html=1;" vertex="1" parent="1">
          <mxGeometry x="1200" y="420" width="130" height="40" as="geometry" />
        </mxCell>
        <mxCell id="-tMDwIPw_-50pKegS80d-129" value="" style="rounded=0;whiteSpace=wrap;html=1;" vertex="1" parent="1">
          <mxGeometry x="1060" y="460" width="90" height="40" as="geometry" />
        </mxCell>
        <mxCell id="-tMDwIPw_-50pKegS80d-130" value="" style="rounded=0;whiteSpace=wrap;html=1;" vertex="1" parent="1">
          <mxGeometry x="1150" y="460" width="90" height="40" as="geometry" />
        </mxCell>
        <mxCell id="-tMDwIPw_-50pKegS80d-131" value="" style="rounded=0;whiteSpace=wrap;html=1;" vertex="1" parent="1">
          <mxGeometry x="1240" y="460" width="90" height="40" as="geometry" />
        </mxCell>
        <mxCell id="-tMDwIPw_-50pKegS80d-132" value="13" style="text;html=1;strokeColor=none;fillColor=none;align=center;verticalAlign=middle;whiteSpace=wrap;rounded=0;" vertex="1" parent="1">
          <mxGeometry x="1000" y="390" width="60" height="30" as="geometry" />
        </mxCell>
        <mxCell id="-tMDwIPw_-50pKegS80d-133" value="14" style="text;html=1;strokeColor=none;fillColor=none;align=center;verticalAlign=middle;whiteSpace=wrap;rounded=0;" vertex="1" parent="1">
          <mxGeometry x="1330" y="390" width="60" height="30" as="geometry" />
        </mxCell>
        <mxCell id="-tMDwIPw_-50pKegS80d-134" value="16" style="text;html=1;strokeColor=none;fillColor=none;align=center;verticalAlign=middle;whiteSpace=wrap;rounded=0;" vertex="1" parent="1">
          <mxGeometry x="1330" y="500" width="60" height="30" as="geometry" />
        </mxCell>
        <mxCell id="-tMDwIPw_-50pKegS80d-135" value="15" style="text;html=1;strokeColor=none;fillColor=none;align=center;verticalAlign=middle;whiteSpace=wrap;rounded=0;" vertex="1" parent="1">
          <mxGeometry x="1000" y="500" width="60" height="30" as="geometry" />
        </mxCell>
        <mxCell id="-tMDwIPw_-50pKegS80d-136" value="9" style="text;html=1;strokeColor=none;fillColor=none;align=center;verticalAlign=middle;whiteSpace=wrap;rounded=0;" vertex="1" parent="1">
          <mxGeometry x="1100" y="425" width="60" height="30" as="geometry" />
        </mxCell>
        <mxCell id="-tMDwIPw_-50pKegS80d-137" value="Kontrolle Netzwerk" style="text;html=1;strokeColor=none;fillColor=none;align=center;verticalAlign=middle;whiteSpace=wrap;rounded=0;" vertex="1" parent="1">
          <mxGeometry x="1200" y="425" width="130" height="30" as="geometry" />
        </mxCell>
        <mxCell id="-tMDwIPw_-50pKegS80d-138" value="1" style="text;html=1;strokeColor=none;fillColor=none;align=center;verticalAlign=middle;whiteSpace=wrap;rounded=0;" vertex="1" parent="1">
          <mxGeometry x="1075" y="465" width="60" height="30" as="geometry" />
        </mxCell>
        <mxCell id="-tMDwIPw_-50pKegS80d-139" value="2" style="text;html=1;strokeColor=none;fillColor=none;align=center;verticalAlign=middle;whiteSpace=wrap;rounded=0;" vertex="1" parent="1">
          <mxGeometry x="1165" y="465" width="60" height="30" as="geometry" />
        </mxCell>
        <mxCell id="-tMDwIPw_-50pKegS80d-140" value="2" style="text;html=1;strokeColor=none;fillColor=none;align=center;verticalAlign=middle;whiteSpace=wrap;rounded=0;" vertex="1" parent="1">
          <mxGeometry x="1255" y="465" width="60" height="30" as="geometry" />
        </mxCell>
        <mxCell id="-tMDwIPw_-50pKegS80d-141" value="" style="rounded=0;whiteSpace=wrap;html=1;" vertex="1" parent="1">
          <mxGeometry x="1090" y="580" width="140" height="40" as="geometry" />
        </mxCell>
        <mxCell id="-tMDwIPw_-50pKegS80d-142" value="" style="rounded=0;whiteSpace=wrap;html=1;" vertex="1" parent="1">
          <mxGeometry x="1230" y="580" width="130" height="40" as="geometry" />
        </mxCell>
        <mxCell id="-tMDwIPw_-50pKegS80d-143" value="" style="rounded=0;whiteSpace=wrap;html=1;" vertex="1" parent="1">
          <mxGeometry x="1090" y="620" width="90" height="40" as="geometry" />
        </mxCell>
        <mxCell id="-tMDwIPw_-50pKegS80d-144" value="" style="rounded=0;whiteSpace=wrap;html=1;" vertex="1" parent="1">
          <mxGeometry x="1180" y="620" width="90" height="40" as="geometry" />
        </mxCell>
        <mxCell id="-tMDwIPw_-50pKegS80d-145" value="" style="rounded=0;whiteSpace=wrap;html=1;" vertex="1" parent="1">
          <mxGeometry x="1270" y="620" width="90" height="40" as="geometry" />
        </mxCell>
        <mxCell id="-tMDwIPw_-50pKegS80d-146" value="13" style="text;html=1;strokeColor=none;fillColor=none;align=center;verticalAlign=middle;whiteSpace=wrap;rounded=0;" vertex="1" parent="1">
          <mxGeometry x="1030" y="550" width="60" height="30" as="geometry" />
        </mxCell>
        <mxCell id="-tMDwIPw_-50pKegS80d-147" value="15" style="text;html=1;strokeColor=none;fillColor=none;align=center;verticalAlign=middle;whiteSpace=wrap;rounded=0;" vertex="1" parent="1">
          <mxGeometry x="1360" y="550" width="60" height="30" as="geometry" />
        </mxCell>
        <mxCell id="-tMDwIPw_-50pKegS80d-148" value="15" style="text;html=1;strokeColor=none;fillColor=none;align=center;verticalAlign=middle;whiteSpace=wrap;rounded=0;" vertex="1" parent="1">
          <mxGeometry x="1360" y="660" width="60" height="30" as="geometry" />
        </mxCell>
        <mxCell id="-tMDwIPw_-50pKegS80d-149" value="13" style="text;html=1;strokeColor=none;fillColor=none;align=center;verticalAlign=middle;whiteSpace=wrap;rounded=0;" vertex="1" parent="1">
          <mxGeometry x="1030" y="660" width="60" height="30" as="geometry" />
        </mxCell>
        <mxCell id="-tMDwIPw_-50pKegS80d-150" value="10" style="text;html=1;strokeColor=none;fillColor=none;align=center;verticalAlign=middle;whiteSpace=wrap;rounded=0;" vertex="1" parent="1">
          <mxGeometry x="1130" y="585" width="60" height="30" as="geometry" />
        </mxCell>
        <mxCell id="-tMDwIPw_-50pKegS80d-151" value="Config WLAN" style="text;html=1;strokeColor=none;fillColor=none;align=center;verticalAlign=middle;whiteSpace=wrap;rounded=0;" vertex="1" parent="1">
          <mxGeometry x="1230" y="585" width="130" height="30" as="geometry" />
        </mxCell>
        <mxCell id="-tMDwIPw_-50pKegS80d-152" value="2" style="text;html=1;strokeColor=none;fillColor=none;align=center;verticalAlign=middle;whiteSpace=wrap;rounded=0;" vertex="1" parent="1">
          <mxGeometry x="1105" y="625" width="60" height="30" as="geometry" />
        </mxCell>
        <mxCell id="-tMDwIPw_-50pKegS80d-153" value="0" style="text;html=1;strokeColor=none;fillColor=none;align=center;verticalAlign=middle;whiteSpace=wrap;rounded=0;" vertex="1" parent="1">
          <mxGeometry x="1195" y="625" width="60" height="30" as="geometry" />
        </mxCell>
        <mxCell id="-tMDwIPw_-50pKegS80d-154" value="0" style="text;html=1;strokeColor=none;fillColor=none;align=center;verticalAlign=middle;whiteSpace=wrap;rounded=0;" vertex="1" parent="1">
          <mxGeometry x="1285" y="625" width="60" height="30" as="geometry" />
        </mxCell>
        <mxCell id="-tMDwIPw_-50pKegS80d-155" value="" style="rounded=0;whiteSpace=wrap;html=1;" vertex="1" parent="1">
          <mxGeometry x="1880" y="505" width="140" height="40" as="geometry" />
        </mxCell>
        <mxCell id="-tMDwIPw_-50pKegS80d-156" value="" style="rounded=0;whiteSpace=wrap;html=1;" vertex="1" parent="1">
          <mxGeometry x="2020" y="505" width="130" height="40" as="geometry" />
        </mxCell>
        <mxCell id="-tMDwIPw_-50pKegS80d-157" value="" style="rounded=0;whiteSpace=wrap;html=1;" vertex="1" parent="1">
          <mxGeometry x="1880" y="545" width="90" height="40" as="geometry" />
        </mxCell>
        <mxCell id="-tMDwIPw_-50pKegS80d-158" value="" style="rounded=0;whiteSpace=wrap;html=1;" vertex="1" parent="1">
          <mxGeometry x="1970" y="545" width="90" height="40" as="geometry" />
        </mxCell>
        <mxCell id="-tMDwIPw_-50pKegS80d-159" value="" style="rounded=0;whiteSpace=wrap;html=1;" vertex="1" parent="1">
          <mxGeometry x="2060" y="545" width="90" height="40" as="geometry" />
        </mxCell>
        <mxCell id="-tMDwIPw_-50pKegS80d-160" value="16" style="text;html=1;strokeColor=none;fillColor=none;align=center;verticalAlign=middle;whiteSpace=wrap;rounded=0;" vertex="1" parent="1">
          <mxGeometry x="1820" y="475" width="60" height="30" as="geometry" />
        </mxCell>
        <mxCell id="-tMDwIPw_-50pKegS80d-161" value="18" style="text;html=1;strokeColor=none;fillColor=none;align=center;verticalAlign=middle;whiteSpace=wrap;rounded=0;" vertex="1" parent="1">
          <mxGeometry x="2150" y="475" width="60" height="30" as="geometry" />
        </mxCell>
        <mxCell id="-tMDwIPw_-50pKegS80d-162" value="18" style="text;html=1;strokeColor=none;fillColor=none;align=center;verticalAlign=middle;whiteSpace=wrap;rounded=0;" vertex="1" parent="1">
          <mxGeometry x="2150" y="585" width="60" height="30" as="geometry" />
        </mxCell>
        <mxCell id="-tMDwIPw_-50pKegS80d-163" value="16" style="text;html=1;strokeColor=none;fillColor=none;align=center;verticalAlign=middle;whiteSpace=wrap;rounded=0;" vertex="1" parent="1">
          <mxGeometry x="1820" y="585" width="60" height="30" as="geometry" />
        </mxCell>
        <mxCell id="-tMDwIPw_-50pKegS80d-164" value="12" style="text;html=1;strokeColor=none;fillColor=none;align=center;verticalAlign=middle;whiteSpace=wrap;rounded=0;" vertex="1" parent="1">
          <mxGeometry x="1920" y="510" width="60" height="30" as="geometry" />
        </mxCell>
        <mxCell id="-tMDwIPw_-50pKegS80d-165" value="Ãœbergabe" style="text;html=1;strokeColor=none;fillColor=none;align=center;verticalAlign=middle;whiteSpace=wrap;rounded=0;" vertex="1" parent="1">
          <mxGeometry x="2020" y="510" width="130" height="30" as="geometry" />
        </mxCell>
        <mxCell id="-tMDwIPw_-50pKegS80d-166" value="2" style="text;html=1;strokeColor=none;fillColor=none;align=center;verticalAlign=middle;whiteSpace=wrap;rounded=0;" vertex="1" parent="1">
          <mxGeometry x="1895" y="550" width="60" height="30" as="geometry" />
        </mxCell>
        <mxCell id="-tMDwIPw_-50pKegS80d-167" value="0" style="text;html=1;strokeColor=none;fillColor=none;align=center;verticalAlign=middle;whiteSpace=wrap;rounded=0;" vertex="1" parent="1">
          <mxGeometry x="1985" y="550" width="60" height="30" as="geometry" />
        </mxCell>
        <mxCell id="-tMDwIPw_-50pKegS80d-168" value="0" style="text;html=1;strokeColor=none;fillColor=none;align=center;verticalAlign=middle;whiteSpace=wrap;rounded=0;" vertex="1" parent="1">
          <mxGeometry x="2075" y="550" width="60" height="30" as="geometry" />
        </mxCell>
        <mxCell id="-tMDwIPw_-50pKegS80d-169" value="" style="rounded=0;whiteSpace=wrap;html=1;" vertex="1" parent="1">
          <mxGeometry x="1490" y="580" width="140" height="40" as="geometry" />
        </mxCell>
        <mxCell id="-tMDwIPw_-50pKegS80d-170" value="" style="rounded=0;whiteSpace=wrap;html=1;" vertex="1" parent="1">
          <mxGeometry x="1630" y="580" width="130" height="40" as="geometry" />
        </mxCell>
        <mxCell id="-tMDwIPw_-50pKegS80d-171" value="" style="rounded=0;whiteSpace=wrap;html=1;" vertex="1" parent="1">
          <mxGeometry x="1490" y="620" width="90" height="40" as="geometry" />
        </mxCell>
        <mxCell id="-tMDwIPw_-50pKegS80d-172" value="" style="rounded=0;whiteSpace=wrap;html=1;" vertex="1" parent="1">
          <mxGeometry x="1580" y="620" width="90" height="40" as="geometry" />
        </mxCell>
        <mxCell id="-tMDwIPw_-50pKegS80d-173" value="" style="rounded=0;whiteSpace=wrap;html=1;" vertex="1" parent="1">
          <mxGeometry x="1670" y="620" width="90" height="40" as="geometry" />
        </mxCell>
        <mxCell id="-tMDwIPw_-50pKegS80d-174" value="15" style="text;html=1;strokeColor=none;fillColor=none;align=center;verticalAlign=middle;whiteSpace=wrap;rounded=0;" vertex="1" parent="1">
          <mxGeometry x="1430" y="550" width="60" height="30" as="geometry" />
        </mxCell>
        <mxCell id="-tMDwIPw_-50pKegS80d-175" value="16" style="text;html=1;strokeColor=none;fillColor=none;align=center;verticalAlign=middle;whiteSpace=wrap;rounded=0;" vertex="1" parent="1">
          <mxGeometry x="1760" y="550" width="60" height="30" as="geometry" />
        </mxCell>
        <mxCell id="-tMDwIPw_-50pKegS80d-176" value="16" style="text;html=1;strokeColor=none;fillColor=none;align=center;verticalAlign=middle;whiteSpace=wrap;rounded=0;" vertex="1" parent="1">
          <mxGeometry x="1760" y="660" width="60" height="30" as="geometry" />
        </mxCell>
        <mxCell id="-tMDwIPw_-50pKegS80d-177" value="15" style="text;html=1;strokeColor=none;fillColor=none;align=center;verticalAlign=middle;whiteSpace=wrap;rounded=0;" vertex="1" parent="1">
          <mxGeometry x="1430" y="660" width="60" height="30" as="geometry" />
        </mxCell>
        <mxCell id="-tMDwIPw_-50pKegS80d-178" value="11" style="text;html=1;strokeColor=none;fillColor=none;align=center;verticalAlign=middle;whiteSpace=wrap;rounded=0;" vertex="1" parent="1">
          <mxGeometry x="1530" y="585" width="60" height="30" as="geometry" />
        </mxCell>
        <mxCell id="-tMDwIPw_-50pKegS80d-179" value="Funk WLAN" style="text;html=1;strokeColor=none;fillColor=none;align=center;verticalAlign=middle;whiteSpace=wrap;rounded=0;" vertex="1" parent="1">
          <mxGeometry x="1630" y="585" width="130" height="30" as="geometry" />
        </mxCell>
        <mxCell id="-tMDwIPw_-50pKegS80d-180" value="1" style="text;html=1;strokeColor=none;fillColor=none;align=center;verticalAlign=middle;whiteSpace=wrap;rounded=0;" vertex="1" parent="1">
          <mxGeometry x="1505" y="625" width="60" height="30" as="geometry" />
        </mxCell>
        <mxCell id="-tMDwIPw_-50pKegS80d-181" value="0" style="text;html=1;strokeColor=none;fillColor=none;align=center;verticalAlign=middle;whiteSpace=wrap;rounded=0;" vertex="1" parent="1">
          <mxGeometry x="1595" y="625" width="60" height="30" as="geometry" />
        </mxCell>
        <mxCell id="-tMDwIPw_-50pKegS80d-182" value="0" style="text;html=1;strokeColor=none;fillColor=none;align=center;verticalAlign=middle;whiteSpace=wrap;rounded=0;" vertex="1" parent="1">
          <mxGeometry x="1685" y="625" width="60" height="30" as="geometry" />
        </mxCell>
        <mxCell id="-tMDwIPw_-50pKegS80d-183" value="" style="rounded=0;whiteSpace=wrap;html=1;" vertex="1" parent="1">
          <mxGeometry x="2300" y="505" width="140" height="40" as="geometry" />
        </mxCell>
        <mxCell id="-tMDwIPw_-50pKegS80d-184" value="" style="rounded=0;whiteSpace=wrap;html=1;" vertex="1" parent="1">
          <mxGeometry x="2440" y="505" width="130" height="40" as="geometry" />
        </mxCell>
        <mxCell id="-tMDwIPw_-50pKegS80d-185" value="" style="rounded=0;whiteSpace=wrap;html=1;" vertex="1" parent="1">
          <mxGeometry x="2300" y="545" width="90" height="40" as="geometry" />
        </mxCell>
        <mxCell id="-tMDwIPw_-50pKegS80d-186" value="" style="rounded=0;whiteSpace=wrap;html=1;" vertex="1" parent="1">
          <mxGeometry x="2390" y="545" width="90" height="40" as="geometry" />
        </mxCell>
        <mxCell id="-tMDwIPw_-50pKegS80d-187" value="" style="rounded=0;whiteSpace=wrap;html=1;" vertex="1" parent="1">
          <mxGeometry x="2480" y="545" width="90" height="40" as="geometry" />
        </mxCell>
        <mxCell id="-tMDwIPw_-50pKegS80d-188" value="18" style="text;html=1;strokeColor=none;fillColor=none;align=center;verticalAlign=middle;whiteSpace=wrap;rounded=0;" vertex="1" parent="1">
          <mxGeometry x="2240" y="475" width="60" height="30" as="geometry" />
        </mxCell>
        <mxCell id="-tMDwIPw_-50pKegS80d-189" value="20" style="text;html=1;strokeColor=none;fillColor=none;align=center;verticalAlign=middle;whiteSpace=wrap;rounded=0;" vertex="1" parent="1">
          <mxGeometry x="2570" y="475" width="60" height="30" as="geometry" />
        </mxCell>
        <mxCell id="-tMDwIPw_-50pKegS80d-190" value="20" style="text;html=1;strokeColor=none;fillColor=none;align=center;verticalAlign=middle;whiteSpace=wrap;rounded=0;" vertex="1" parent="1">
          <mxGeometry x="2570" y="585" width="60" height="30" as="geometry" />
        </mxCell>
        <mxCell id="-tMDwIPw_-50pKegS80d-191" value="18" style="text;html=1;strokeColor=none;fillColor=none;align=center;verticalAlign=middle;whiteSpace=wrap;rounded=0;" vertex="1" parent="1">
          <mxGeometry x="2240" y="585" width="60" height="30" as="geometry" />
        </mxCell>
        <mxCell id="-tMDwIPw_-50pKegS80d-192" value="13" style="text;html=1;strokeColor=none;fillColor=none;align=center;verticalAlign=middle;whiteSpace=wrap;rounded=0;" vertex="1" parent="1">
          <mxGeometry x="2340" y="510" width="60" height="30" as="geometry" />
        </mxCell>
        <mxCell id="-tMDwIPw_-50pKegS80d-193" value="Doku" style="text;html=1;strokeColor=none;fillColor=none;align=center;verticalAlign=middle;whiteSpace=wrap;rounded=0;" vertex="1" parent="1">
          <mxGeometry x="2440" y="510" width="130" height="30" as="geometry" />
        </mxCell>
        <mxCell id="-tMDwIPw_-50pKegS80d-194" value="2" style="text;html=1;strokeColor=none;fillColor=none;align=center;verticalAlign=middle;whiteSpace=wrap;rounded=0;" vertex="1" parent="1">
          <mxGeometry x="2315" y="550" width="60" height="30" as="geometry" />
        </mxCell>
        <mxCell id="-tMDwIPw_-50pKegS80d-195" value="0" style="text;html=1;strokeColor=none;fillColor=none;align=center;verticalAlign=middle;whiteSpace=wrap;rounded=0;" vertex="1" parent="1">
          <mxGeometry x="2405" y="550" width="60" height="30" as="geometry" />
        </mxCell>
        <mxCell id="-tMDwIPw_-50pKegS80d-196" value="-" style="text;html=1;strokeColor=none;fillColor=none;align=center;verticalAlign=middle;whiteSpace=wrap;rounded=0;" vertex="1" parent="1">
          <mxGeometry x="2495" y="550" width="60" height="30" as="geometry" />
        </mxCell>
        <mxCell id="-tMDwIPw_-50pKegS80d-197" value="" style="endArrow=classic;html=1;rounded=0;exitX=1;exitY=1;exitDx=0;exitDy=0;entryX=0;entryY=0;entryDx=0;entryDy=0;" edge="1" parent="1" source="-tMDwIPw_-50pKegS80d-25" target="-tMDwIPw_-50pKegS80d-45">
          <mxGeometry width="50" height="50" relative="1" as="geometry">
            <mxPoint x="-990" y="640" as="sourcePoint" />
            <mxPoint x="-940" y="590" as="targetPoint" />
          </mxGeometry>
        </mxCell>
        <mxCell id="-tMDwIPw_-50pKegS80d-198" value="" style="endArrow=classic;html=1;rounded=0;exitX=1;exitY=0;exitDx=0;exitDy=0;entryX=0;entryY=0;entryDx=0;entryDy=0;" edge="1" parent="1" source="-tMDwIPw_-50pKegS80d-19" target="-tMDwIPw_-50pKegS80d-31">
          <mxGeometry width="50" height="50" relative="1" as="geometry">
            <mxPoint x="-1220" y="600" as="sourcePoint" />
            <mxPoint x="-1170" y="550" as="targetPoint" />
          </mxGeometry>
        </mxCell>
        <mxCell id="-tMDwIPw_-50pKegS80d-199" value="" style="endArrow=classic;html=1;rounded=0;exitX=1;exitY=0;exitDx=0;exitDy=0;entryX=0;entryY=0;entryDx=0;entryDy=0;" edge="1" parent="1" source="-tMDwIPw_-50pKegS80d-47" target="-tMDwIPw_-50pKegS80d-73">
          <mxGeometry width="50" height="50" relative="1" as="geometry">
            <mxPoint x="-770" y="760" as="sourcePoint" />
            <mxPoint x="-720" y="710" as="targetPoint" />
          </mxGeometry>
        </mxCell>
        <mxCell id="-tMDwIPw_-50pKegS80d-200" value="" style="endArrow=classic;html=1;rounded=0;exitX=1;exitY=0;exitDx=0;exitDy=0;entryX=0;entryY=0;entryDx=0;entryDy=0;" edge="1" parent="1" source="-tMDwIPw_-50pKegS80d-33" target="-tMDwIPw_-50pKegS80d-59">
          <mxGeometry width="50" height="50" relative="1" as="geometry">
            <mxPoint x="-770" y="510" as="sourcePoint" />
            <mxPoint x="-720" y="460" as="targetPoint" />
          </mxGeometry>
        </mxCell>
        <mxCell id="-tMDwIPw_-50pKegS80d-201" value="" style="endArrow=classic;html=1;rounded=0;exitX=1;exitY=0;exitDx=0;exitDy=0;entryX=0;entryY=0;entryDx=0;entryDy=0;" edge="1" parent="1" source="-tMDwIPw_-50pKegS80d-61" target="-tMDwIPw_-50pKegS80d-87">
          <mxGeometry width="50" height="50" relative="1" as="geometry">
            <mxPoint x="-290" y="510" as="sourcePoint" />
            <mxPoint x="-240" y="460" as="targetPoint" />
          </mxGeometry>
        </mxCell>
        <mxCell id="-tMDwIPw_-50pKegS80d-202" value="" style="endArrow=classic;html=1;rounded=0;exitX=1;exitY=0;exitDx=0;exitDy=0;entryX=0;entryY=0;entryDx=0;entryDy=0;" edge="1" parent="1" source="-tMDwIPw_-50pKegS80d-75" target="-tMDwIPw_-50pKegS80d-87">
          <mxGeometry width="50" height="50" relative="1" as="geometry">
            <mxPoint x="-320" y="740" as="sourcePoint" />
            <mxPoint x="-270" y="690" as="targetPoint" />
          </mxGeometry>
        </mxCell>
        <mxCell id="-tMDwIPw_-50pKegS80d-203" value="" style="endArrow=classic;html=1;rounded=0;exitX=1;exitY=0;exitDx=0;exitDy=0;entryX=0;entryY=0;entryDx=0;entryDy=0;" edge="1" parent="1" source="-tMDwIPw_-50pKegS80d-89" target="-tMDwIPw_-50pKegS80d-101">
          <mxGeometry width="50" height="50" relative="1" as="geometry">
            <mxPoint x="160" y="620" as="sourcePoint" />
            <mxPoint x="210" y="570" as="targetPoint" />
          </mxGeometry>
        </mxCell>
        <mxCell id="-tMDwIPw_-50pKegS80d-204" value="" style="endArrow=classic;html=1;rounded=0;exitX=1;exitY=0;exitDx=0;exitDy=0;entryX=0;entryY=1;entryDx=0;entryDy=0;" edge="1" parent="1" source="-tMDwIPw_-50pKegS80d-103" target="-tMDwIPw_-50pKegS80d-113">
          <mxGeometry width="50" height="50" relative="1" as="geometry">
            <mxPoint x="600" y="630" as="sourcePoint" />
            <mxPoint x="650" y="580" as="targetPoint" />
          </mxGeometry>
        </mxCell>
        <mxCell id="-tMDwIPw_-50pKegS80d-206" value="" style="endArrow=classic;html=1;rounded=0;exitX=1;exitY=0;exitDx=0;exitDy=0;entryX=0;entryY=0;entryDx=0;entryDy=0;" edge="1" parent="1" source="-tMDwIPw_-50pKegS80d-117" target="-tMDwIPw_-50pKegS80d-129">
          <mxGeometry width="50" height="50" relative="1" as="geometry">
            <mxPoint x="970" y="620" as="sourcePoint" />
            <mxPoint x="1020" y="570" as="targetPoint" />
          </mxGeometry>
        </mxCell>
        <mxCell id="-tMDwIPw_-50pKegS80d-207" value="" style="endArrow=classic;html=1;rounded=0;exitX=1;exitY=0;exitDx=0;exitDy=0;entryX=0;entryY=1;entryDx=0;entryDy=0;" edge="1" parent="1" source="-tMDwIPw_-50pKegS80d-117" target="-tMDwIPw_-50pKegS80d-141">
          <mxGeometry width="50" height="50" relative="1" as="geometry">
            <mxPoint x="1010" y="640" as="sourcePoint" />
            <mxPoint x="1060" y="590" as="targetPoint" />
          </mxGeometry>
        </mxCell>
        <mxCell id="-tMDwIPw_-50pKegS80d-208" value="" style="endArrow=classic;html=1;rounded=0;exitX=1;exitY=1;exitDx=0;exitDy=0;entryX=0;entryY=0;entryDx=0;entryDy=0;" edge="1" parent="1" source="-tMDwIPw_-50pKegS80d-151" target="-tMDwIPw_-50pKegS80d-171">
          <mxGeometry width="50" height="50" relative="1" as="geometry">
            <mxPoint x="1400" y="650" as="sourcePoint" />
            <mxPoint x="1450" y="600" as="targetPoint" />
          </mxGeometry>
        </mxCell>
        <mxCell id="-tMDwIPw_-50pKegS80d-209" value="" style="endArrow=classic;html=1;rounded=0;exitX=1;exitY=0;exitDx=0;exitDy=0;entryX=0;entryY=1;entryDx=0;entryDy=0;" edge="1" parent="1" source="-tMDwIPw_-50pKegS80d-131" target="-tMDwIPw_-50pKegS80d-155">
          <mxGeometry width="50" height="50" relative="1" as="geometry">
            <mxPoint x="1560" y="470" as="sourcePoint" />
            <mxPoint x="1610" y="420" as="targetPoint" />
          </mxGeometry>
        </mxCell>
        <mxCell id="-tMDwIPw_-50pKegS80d-210" value="" style="endArrow=classic;html=1;rounded=0;exitX=1;exitY=0;exitDx=0;exitDy=0;entryX=0;entryY=0;entryDx=0;entryDy=0;" edge="1" parent="1" source="-tMDwIPw_-50pKegS80d-173" target="-tMDwIPw_-50pKegS80d-157">
          <mxGeometry width="50" height="50" relative="1" as="geometry">
            <mxPoint x="1810" y="640" as="sourcePoint" />
            <mxPoint x="1860" y="590" as="targetPoint" />
          </mxGeometry>
        </mxCell>
        <mxCell id="-tMDwIPw_-50pKegS80d-211" value="" style="endArrow=classic;html=1;rounded=0;exitX=1;exitY=0;exitDx=0;exitDy=0;entryX=0;entryY=1;entryDx=0;entryDy=0;" edge="1" parent="1" source="-tMDwIPw_-50pKegS80d-159" target="-tMDwIPw_-50pKegS80d-183">
          <mxGeometry width="50" height="50" relative="1" as="geometry">
            <mxPoint x="2230" y="570" as="sourcePoint" />
            <mxPoint x="2280" y="520" as="targetPoint" />
          </mxGeometry>
        </mxCell>
        <mxCell id="-tMDwIPw_-50pKegS80d-212" style="edgeStyle=orthogonalEdgeStyle;rounded=0;orthogonalLoop=1;jettySize=auto;html=1;exitX=0.25;exitY=0;exitDx=0;exitDy=0;entryX=0.25;entryY=0.333;entryDx=0;entryDy=0;entryPerimeter=0;" edge="1" parent="1" source="-tMDwIPw_-50pKegS80d-92" target="-tMDwIPw_-50pKegS80d-92">
          <mxGeometry relative="1" as="geometry" />
        </mxCell>
        <mxCell id="-tMDwIPw_-50pKegS80d-213" value="Text" style="edgeLabel;html=1;align=center;verticalAlign=middle;resizable=0;points=[];" vertex="1" connectable="0" parent="-tMDwIPw_-50pKegS80d-212">
          <mxGeometry x="0.4014" y="-1" relative="1" as="geometry">
            <mxPoint as="offset" />
          </mxGeometry>
        </mxCell>
      </root>
    </mxGraphModel>
  </diagram>
</mxfile>
